<?xml version="1.0" encoding="UTF-8" standalone="no"?>
<!DOCTYPE svg PUBLIC "-//W3C//DTD SVG 1.1//EN"
 "http://www.w3.org/Graphics/SVG/1.1/DTD/svg11.dtd">
<!-- Generated by graphviz version 2.38.0 (20140413.2041)
 -->
<!-- Title: %3 Pages: 1 -->
<svg width="1781pt" height="1714pt"
 viewBox="0.00 0.00 1781.00 1713.93" xmlns="http://www.w3.org/2000/svg" xmlns:xlink="http://www.w3.org/1999/xlink">
<g id="graph0" class="graph" transform="scale(1 1) rotate(0) translate(4 1709.93)">
<title>%3</title>
<polygon fill="white" stroke="none" points="-4,4 -4,-1709.93 1777,-1709.93 1777,4 -4,4"/>
<text text-anchor="middle" x="886.499" y="-112.8" font-family="Times,serif" font-size="14.00">Namespaces:</text>
<text text-anchor="middle" x="886.499" y="-97.8" font-family="Times,serif" font-size="14.00">foaf: http://xmlns.com/foaf/0.1/</text>
<text text-anchor="middle" x="886.499" y="-82.8" font-family="Times,serif" font-size="14.00">my_ns: http://inf558.org/myfakenamespace#</text>
<text text-anchor="middle" x="886.499" y="-67.8" font-family="Times,serif" font-size="14.00">rdf: http://www.w3.org/1999/02/22&#45;rdf&#45;syntax&#45;ns#</text>
<text text-anchor="middle" x="886.499" y="-52.8" font-family="Times,serif" font-size="14.00">rdfs: http://www.w3.org/2000/01/rdf&#45;schema#</text>
<text text-anchor="middle" x="886.499" y="-37.8" font-family="Times,serif" font-size="14.00">schema: http://schema.org/</text>
<text text-anchor="middle" x="886.499" y="-22.8" font-family="Times,serif" font-size="14.00">xml: http://www.w3.org/XML/1998/namespace</text>
<text text-anchor="middle" x="886.499" y="-7.8" font-family="Times,serif" font-size="14.00">xsd: http://www.w3.org/2001/XMLSchema#</text>
<!-- Rmy_ns:productionCompany -->
<g id="node1" class="node"><title>Rmy_ns:productionCompany</title>
<ellipse fill="none" stroke="blue" cx="1265.83" cy="-983.93" rx="137.576" ry="18"/>
<text text-anchor="middle" x="1265.83" y="-980.23" font-family="Times,serif" font-size="14.00">my_ns:productionCompany</text>
</g>
<!-- Rschema:Class -->
<g id="node2" class="node"><title>Rschema:Class</title>
<ellipse fill="none" stroke="blue" cx="1663.81" cy="-905.93" rx="74.9875" ry="18"/>
<text text-anchor="middle" x="1663.81" y="-902.23" font-family="Times,serif" font-size="14.00">schema:Class</text>
</g>
<!-- Rmy_ns:productionCompany&#45;&gt;Rschema:Class -->
<g id="edge1" class="edge"><title>Rmy_ns:productionCompany&#45;&gt;Rschema:Class</title>
<path fill="none" stroke="black" d="M1342.71,-968.983C1415.81,-954.584 1525.33,-933.01 1595.43,-919.203"/>
<polygon fill="black" stroke="black" points="1596.34,-922.59 1605.47,-917.224 1594.98,-915.722 1596.34,-922.59"/>
<text text-anchor="middle" x="1479.12" y="-955.73" font-family="Times,serif" font-size="14.00">rdf:type</text>
</g>
<!-- Rschema:Organization -->
<g id="node3" class="node"><title>Rschema:Organization</title>
<ellipse fill="none" stroke="blue" cx="1663.81" cy="-987.93" rx="109.381" ry="18"/>
<text text-anchor="middle" x="1663.81" y="-984.23" font-family="Times,serif" font-size="14.00">schema:Organization</text>
</g>
<!-- Rmy_ns:productionCompany&#45;&gt;Rschema:Organization -->
<g id="edge2" class="edge"><title>Rmy_ns:productionCompany&#45;&gt;Rschema:Organization</title>
<path fill="none" stroke="black" d="M1403.38,-985.309C1449.23,-985.772 1499.96,-986.285 1544.31,-986.733"/>
<polygon fill="black" stroke="black" points="1544.52,-990.235 1554.55,-986.836 1544.59,-983.235 1544.52,-990.235"/>
<text text-anchor="middle" x="1479.12" y="-990.73" font-family="Times,serif" font-size="14.00">rdfs:subClassOf</text>
</g>
<!-- Rxsd:text -->
<g id="node4" class="node"><title>Rxsd:text</title>
<ellipse fill="none" stroke="blue" cx="1663.81" cy="-725.93" rx="48.1917" ry="18"/>
<text text-anchor="middle" x="1663.81" y="-722.23" font-family="Times,serif" font-size="14.00">xsd:text</text>
</g>
<!-- Rmy_ns:productionCompany&#45;&gt;Rxsd:text -->
<g id="edge3" class="edge"><title>Rmy_ns:productionCompany&#45;&gt;Rxsd:text</title>
<path fill="none" stroke="black" d="M1375.97,-972.974C1385.96,-968.938 1395.39,-963.698 1403.62,-956.93 1419.93,-943.502 1407.96,-929.049 1421.62,-912.93 1460.45,-867.104 1488.74,-878.197 1536.62,-841.93 1574.88,-812.946 1615.03,-774.43 1639.49,-749.903"/>
<polygon fill="black" stroke="black" points="1642.01,-752.335 1646.56,-742.767 1637.04,-747.408 1642.01,-752.335"/>
<text text-anchor="middle" x="1479.12" y="-916.73" font-family="Times,serif" font-size="14.00">foaf:name</text>
</g>
<!-- Rmy_ns:imdbRating -->
<g id="node5" class="node"><title>Rmy_ns:imdbRating</title>
<ellipse fill="none" stroke="blue" cx="191.733" cy="-1687.93" rx="97.4827" ry="18"/>
<text text-anchor="middle" x="191.733" y="-1684.23" font-family="Times,serif" font-size="14.00">my_ns:imdbRating</text>
</g>
<!-- Rschema:Property -->
<g id="node6" class="node"><title>Rschema:Property</title>
<ellipse fill="none" stroke="blue" cx="755.754" cy="-1579.93" rx="90.1842" ry="18"/>
<text text-anchor="middle" x="755.754" y="-1576.23" font-family="Times,serif" font-size="14.00">schema:Property</text>
</g>
<!-- Rmy_ns:imdbRating&#45;&gt;Rschema:Property -->
<g id="edge4" class="edge"><title>Rmy_ns:imdbRating&#45;&gt;Rschema:Property</title>
<path fill="none" stroke="black" d="M285.527,-1682.99C370.164,-1676.95 498.16,-1663.99 606.466,-1636.93 642.046,-1628.04 680.671,-1613.01 709.579,-1600.61"/>
<polygon fill="black" stroke="black" points="711.215,-1603.72 718.992,-1596.52 708.425,-1597.3 711.215,-1603.72"/>
<text text-anchor="middle" x="503.966" y="-1675.73" font-family="Times,serif" font-size="14.00">rdf:type</text>
</g>
<!-- Rmy_ns:imdbMetascore -->
<g id="node7" class="node"><title>Rmy_ns:imdbMetascore</title>
<ellipse fill="none" stroke="blue" cx="191.733" cy="-1633.93" rx="116.18" ry="18"/>
<text text-anchor="middle" x="191.733" y="-1630.23" font-family="Times,serif" font-size="14.00">my_ns:imdbMetascore</text>
</g>
<!-- Rmy_ns:imdbMetascore&#45;&gt;Rschema:Property -->
<g id="edge5" class="edge"><title>Rmy_ns:imdbMetascore&#45;&gt;Rschema:Property</title>
<path fill="none" stroke="black" d="M297.425,-1626.32C381.138,-1619.94 501.453,-1610.09 606.466,-1598.93 627.315,-1596.71 649.772,-1594 670.746,-1591.33"/>
<polygon fill="black" stroke="black" points="671.437,-1594.77 680.909,-1590.03 670.545,-1587.83 671.437,-1594.77"/>
<text text-anchor="middle" x="503.966" y="-1621.73" font-family="Times,serif" font-size="14.00">rdf:type</text>
</g>
<!-- Rmy_ns:imdbVotes -->
<g id="node8" class="node"><title>Rmy_ns:imdbVotes</title>
<ellipse fill="none" stroke="blue" cx="191.733" cy="-1579.93" rx="92.0841" ry="18"/>
<text text-anchor="middle" x="191.733" y="-1576.23" font-family="Times,serif" font-size="14.00">my_ns:imdbVotes</text>
</g>
<!-- Rmy_ns:imdbVotes&#45;&gt;Rschema:Property -->
<g id="edge6" class="edge"><title>Rmy_ns:imdbVotes&#45;&gt;Rschema:Property</title>
<path fill="none" stroke="black" d="M284.282,-1579.93C386.028,-1579.93 549.799,-1579.93 654.812,-1579.93"/>
<polygon fill="black" stroke="black" points="655.103,-1583.43 665.103,-1579.93 655.103,-1576.43 655.103,-1583.43"/>
<text text-anchor="middle" x="503.966" y="-1583.73" font-family="Times,serif" font-size="14.00">rdf:type</text>
</g>
<!-- Rmy_ns:grossIncome -->
<g id="node9" class="node"><title>Rmy_ns:grossIncome</title>
<ellipse fill="none" stroke="blue" cx="191.733" cy="-1525.93" rx="103.182" ry="18"/>
<text text-anchor="middle" x="191.733" y="-1522.23" font-family="Times,serif" font-size="14.00">my_ns:grossIncome</text>
</g>
<!-- Rmy_ns:grossIncome&#45;&gt;Rschema:Property -->
<g id="edge7" class="edge"><title>Rmy_ns:grossIncome&#45;&gt;Rschema:Property</title>
<path fill="none" stroke="black" d="M287.327,-1532.77C371.257,-1539.11 497.152,-1549.31 606.466,-1560.93 627.315,-1563.15 649.772,-1565.86 670.746,-1568.53"/>
<polygon fill="black" stroke="black" points="670.545,-1572.03 680.909,-1569.83 671.437,-1565.09 670.545,-1572.03"/>
<text text-anchor="middle" x="503.966" y="-1564.73" font-family="Times,serif" font-size="14.00">rdf:type</text>
</g>
<!-- Rmy_ns:cinematographer -->
<g id="node10" class="node"><title>Rmy_ns:cinematographer</title>
<ellipse fill="none" stroke="blue" cx="191.733" cy="-1471.93" rx="123.478" ry="18"/>
<text text-anchor="middle" x="191.733" y="-1468.23" font-family="Times,serif" font-size="14.00">my_ns:cinematographer</text>
</g>
<!-- Rmy_ns:cinematographer&#45;&gt;Rschema:Property -->
<g id="edge8" class="edge"><title>Rmy_ns:cinematographer&#45;&gt;Rschema:Property</title>
<path fill="none" stroke="black" d="M305.995,-1478.93C389.895,-1485.85 506.513,-1499.15 606.466,-1523.93 641.742,-1532.68 680.088,-1547.3 708.947,-1559.41"/>
<polygon fill="black" stroke="black" points="707.78,-1562.72 718.352,-1563.41 710.519,-1556.28 707.78,-1562.72"/>
<text text-anchor="middle" x="503.966" y="-1527.73" font-family="Times,serif" font-size="14.00">rdf:type</text>
</g>
<!-- Rmy_ns:Movie -->
<g id="node11" class="node"><title>Rmy_ns:Movie</title>
<ellipse fill="none" stroke="blue" cx="755.754" cy="-695.93" rx="72.2875" ry="18"/>
<text text-anchor="middle" x="755.754" y="-692.23" font-family="Times,serif" font-size="14.00">my_ns:Movie</text>
</g>
<!-- Rmy_ns:Movie&#45;&gt;Rmy_ns:productionCompany -->
<g id="edge23" class="edge"><title>Rmy_ns:Movie&#45;&gt;Rmy_ns:productionCompany</title>
<path fill="none" stroke="black" d="M818.745,-704.709C843.808,-711.502 870.638,-723.553 887.043,-744.93 911.92,-777.347 876.067,-899.117 905.043,-927.93 937.484,-960.189 1066.33,-933.42 1110.04,-946.93 1118.79,-949.632 1119.45,-953.783 1128.04,-956.93 1139.79,-961.231 1152.37,-964.896 1164.97,-968.007"/>
<polygon fill="black" stroke="black" points="1164.52,-971.497 1175.06,-970.384 1166.13,-964.684 1164.52,-971.497"/>
<text text-anchor="middle" x="1007.54" y="-951.73" font-family="Times,serif" font-size="14.00">schema:productionCompany</text>
</g>
<!-- Rmy_ns:Movie&#45;&gt;Rschema:Class -->
<g id="edge9" class="edge"><title>Rmy_ns:Movie&#45;&gt;Rschema:Class</title>
<path fill="none" stroke="black" d="M816.011,-705.885C841.027,-712.907 868.577,-724.812 887.043,-744.93 907.024,-766.698 882.673,-789.625 905.043,-808.93 917.899,-820.024 1395.41,-875.476 1585.7,-897.19"/>
<polygon fill="black" stroke="black" points="1585.57,-900.699 1595.91,-898.354 1586.37,-893.744 1585.57,-900.699"/>
<text text-anchor="middle" x="1265.83" y="-879.73" font-family="Times,serif" font-size="14.00">rdf:type</text>
</g>
<!-- Rmy_ns:Movie&#45;&gt;Rxsd:text -->
<g id="edge11" class="edge"><title>Rmy_ns:Movie&#45;&gt;Rxsd:text</title>
<path fill="none" stroke="black" d="M823.506,-702.145C848.998,-704.305 878.346,-706.533 905.043,-707.93 1166.12,-721.583 1478.34,-724.885 1605.09,-725.68"/>
<polygon fill="black" stroke="black" points="1605.32,-729.181 1615.34,-725.741 1605.36,-722.181 1605.32,-729.181"/>
<text text-anchor="middle" x="1265.83" y="-727.73" font-family="Times,serif" font-size="14.00">schema:headline</text>
</g>
<!-- Rmy_ns:Movie&#45;&gt;Rxsd:text -->
<g id="edge15" class="edge"><title>Rmy_ns:Movie&#45;&gt;Rxsd:text</title>
<path fill="none" stroke="black" d="M828.164,-696.279C850.023,-692.68 872.191,-684.599 887.043,-667.93 914.667,-636.924 874.803,-510.39 905.043,-481.93 927.038,-461.228 1379.03,-466.96 1403.62,-473.93 1524.02,-508.062 1614.11,-641.909 1648.06,-699.426"/>
<polygon fill="black" stroke="black" points="1645.16,-701.399 1653.2,-708.292 1651.21,-697.886 1645.16,-701.399"/>
<text text-anchor="middle" x="1265.83" y="-477.73" font-family="Times,serif" font-size="14.00">schema:genre</text>
</g>
<!-- Rmy_ns:Movie&#45;&gt;Rxsd:text -->
<g id="edge16" class="edge"><title>Rmy_ns:Movie&#45;&gt;Rxsd:text</title>
<path fill="none" stroke="black" d="M814.444,-706.572C839.452,-713.745 867.433,-725.579 887.043,-744.93 902.669,-760.35 887.05,-778.351 905.043,-790.93 919.256,-800.866 1369.13,-796.578 1403.62,-795.93 1462.76,-794.818 1479.4,-805.943 1536.62,-790.93 1571.01,-781.905 1606.72,-762.406 1631.34,-747.106"/>
<polygon fill="black" stroke="black" points="1633.31,-749.998 1639.88,-741.686 1629.56,-744.087 1633.31,-749.998"/>
<text text-anchor="middle" x="1265.83" y="-801.73" font-family="Times,serif" font-size="14.00">my_ns:imdbRating</text>
</g>
<!-- Rmy_ns:Movie&#45;&gt;Rxsd:text -->
<g id="edge17" class="edge"><title>Rmy_ns:Movie&#45;&gt;Rxsd:text</title>
<path fill="none" stroke="black" d="M824.761,-690.408C845.906,-686.38 868.51,-679.529 887.043,-667.93 898.046,-661.043 893.571,-651.004 905.043,-644.93 1003,-593.061 1294.51,-610.373 1403.62,-629.93 1485.71,-644.644 1575.8,-683.626 1625.19,-707.143"/>
<polygon fill="black" stroke="black" points="1623.69,-710.306 1634.22,-711.487 1626.73,-703.998 1623.69,-710.306"/>
<text text-anchor="middle" x="1265.83" y="-633.73" font-family="Times,serif" font-size="14.00">my_ns:imdbMetascore</text>
</g>
<!-- Rmy_ns:Movie&#45;&gt;Rxsd:text -->
<g id="edge18" class="edge"><title>Rmy_ns:Movie&#45;&gt;Rxsd:text</title>
<path fill="none" stroke="black" d="M827.709,-694.267C849.021,-690.458 870.979,-682.761 887.043,-667.93 907.498,-649.044 883.316,-625.338 905.043,-607.93 943.098,-577.439 1400.25,-591.446 1403.62,-591.93 1464.59,-600.685 1481.57,-603.292 1536.62,-630.93 1574.71,-650.053 1613.06,-680.974 1637.32,-702.318"/>
<polygon fill="black" stroke="black" points="1635.19,-705.112 1644.99,-709.159 1639.86,-699.889 1635.19,-705.112"/>
<text text-anchor="middle" x="1265.83" y="-595.73" font-family="Times,serif" font-size="14.00">my_ns:imdbVotes</text>
</g>
<!-- Rmy_ns:Movie&#45;&gt;Rxsd:text -->
<g id="edge19" class="edge"><title>Rmy_ns:Movie&#45;&gt;Rxsd:text</title>
<path fill="none" stroke="black" d="M807.927,-708.4C836.365,-714.882 872.483,-722.379 905.043,-726.93 1183.09,-765.788 1256.49,-757.547 1536.62,-738.93 1559.95,-737.379 1585.64,-734.878 1607.71,-732.482"/>
<polygon fill="black" stroke="black" points="1608.35,-735.933 1617.91,-731.356 1607.58,-728.975 1608.35,-735.933"/>
<text text-anchor="middle" x="1265.83" y="-758.73" font-family="Times,serif" font-size="14.00">my_ns:grossIncome</text>
</g>
<!-- Rschema:Movie -->
<g id="node12" class="node"><title>Rschema:Movie</title>
<ellipse fill="none" stroke="blue" cx="1265.83" cy="-410.93" rx="77.9862" ry="18"/>
<text text-anchor="middle" x="1265.83" y="-407.23" font-family="Times,serif" font-size="14.00">schema:Movie</text>
</g>
<!-- Rmy_ns:Movie&#45;&gt;Rschema:Movie -->
<g id="edge10" class="edge"><title>Rmy_ns:Movie&#45;&gt;Rschema:Movie</title>
<path fill="none" stroke="black" d="M828.01,-696.498C849.992,-692.939 872.274,-684.827 887.043,-667.93 921.072,-628.994 868.331,-472.347 905.043,-435.93 942.625,-398.649 1087.52,-399.71 1181.58,-404.727"/>
<polygon fill="black" stroke="black" points="1181.47,-408.226 1191.65,-405.289 1181.86,-401.237 1181.47,-408.226"/>
<text text-anchor="middle" x="1007.54" y="-439.73" font-family="Times,serif" font-size="14.00">rdfs:subClassOf</text>
</g>
<!-- Rxsd:date -->
<g id="node13" class="node"><title>Rxsd:date</title>
<ellipse fill="none" stroke="blue" cx="1265.83" cy="-356.93" rx="50.0912" ry="18"/>
<text text-anchor="middle" x="1265.83" y="-353.23" font-family="Times,serif" font-size="14.00">xsd:date</text>
</g>
<!-- Rmy_ns:Movie&#45;&gt;Rxsd:date -->
<g id="edge12" class="edge"><title>Rmy_ns:Movie&#45;&gt;Rxsd:date</title>
<path fill="none" stroke="black" d="M828.149,-696.618C850.141,-693.069 872.394,-684.931 887.043,-667.93 928.321,-620.022 860.587,-428.904 905.043,-383.93 945.8,-342.696 1115.74,-346.977 1206.73,-352.509"/>
<polygon fill="black" stroke="black" points="1206.68,-356.014 1216.88,-353.152 1207.12,-349.027 1206.68,-356.014"/>
<text text-anchor="middle" x="1007.54" y="-387.73" font-family="Times,serif" font-size="14.00">schema:datePublished</text>
</g>
<!-- Rschema:Rating -->
<g id="node14" class="node"><title>Rschema:Rating</title>
<ellipse fill="none" stroke="blue" cx="1265.83" cy="-302.93" rx="79.8859" ry="18"/>
<text text-anchor="middle" x="1265.83" y="-299.23" font-family="Times,serif" font-size="14.00">schema:Rating</text>
</g>
<!-- Rmy_ns:Movie&#45;&gt;Rschema:Rating -->
<g id="edge13" class="edge"><title>Rmy_ns:Movie&#45;&gt;Rschema:Rating</title>
<path fill="none" stroke="black" d="M827.907,-696.757C850.016,-693.243 872.403,-685.092 887.043,-667.93 911.378,-639.401 878.852,-357.765 905.043,-330.93 982.468,-251.599 1124.73,-268.551 1205.23,-286.59"/>
<polygon fill="black" stroke="black" points="1204.67,-290.054 1215.2,-288.903 1206.25,-283.235 1204.67,-290.054"/>
<text text-anchor="middle" x="1007.54" y="-334.73" font-family="Times,serif" font-size="14.00">schema:contentRating</text>
</g>
<!-- Rschema:Duration -->
<g id="node15" class="node"><title>Rschema:Duration</title>
<ellipse fill="none" stroke="blue" cx="1265.83" cy="-515.93" rx="90.1842" ry="18"/>
<text text-anchor="middle" x="1265.83" y="-512.23" font-family="Times,serif" font-size="14.00">schema:Duration</text>
</g>
<!-- Rmy_ns:Movie&#45;&gt;Rschema:Duration -->
<g id="edge14" class="edge"><title>Rmy_ns:Movie&#45;&gt;Rschema:Duration</title>
<path fill="none" stroke="black" d="M828.078,-695.834C849.797,-692.182 871.904,-684.182 887.043,-667.93 925.9,-626.215 863.318,-579.776 905.043,-540.93 984.807,-466.668 1122.43,-481.831 1202.36,-499.147"/>
<polygon fill="black" stroke="black" points="1201.76,-502.601 1212.29,-501.374 1203.29,-495.771 1201.76,-502.601"/>
<text text-anchor="middle" x="1007.54" y="-544.73" font-family="Times,serif" font-size="14.00">schema:duration</text>
</g>
<!-- Rschema:Person -->
<g id="node16" class="node"><title>Rschema:Person</title>
<ellipse fill="none" stroke="blue" cx="1265.83" cy="-671.93" rx="81.4863" ry="18"/>
<text text-anchor="middle" x="1265.83" y="-668.23" font-family="Times,serif" font-size="14.00">schema:Person</text>
</g>
<!-- Rmy_ns:Movie&#45;&gt;Rschema:Person -->
<g id="edge20" class="edge"><title>Rmy_ns:Movie&#45;&gt;Rschema:Person</title>
<path fill="none" stroke="black" d="M816.974,-686.275C839.323,-681.84 864.667,-675.786 887.043,-667.93 895.482,-664.966 896.338,-660.985 905.043,-658.93 993.716,-637.997 1019.01,-655.114 1110.04,-658.93 1133.28,-659.904 1158.42,-661.697 1181.56,-663.646"/>
<polygon fill="black" stroke="black" points="1181.42,-667.147 1191.68,-664.52 1182.02,-660.173 1181.42,-667.147"/>
<text text-anchor="middle" x="1007.54" y="-662.73" font-family="Times,serif" font-size="14.00">schema:producer</text>
</g>
<!-- Rmy_ns:Movie&#45;&gt;Rschema:Person -->
<g id="edge21" class="edge"><title>Rmy_ns:Movie&#45;&gt;Rschema:Person</title>
<path fill="none" stroke="black" d="M826.867,-692.618C917.929,-688.316 1076.95,-680.805 1176.26,-676.114"/>
<polygon fill="black" stroke="black" points="1176.45,-679.608 1186.27,-675.64 1176.12,-672.616 1176.45,-679.608"/>
<text text-anchor="middle" x="1007.54" y="-692.73" font-family="Times,serif" font-size="14.00">schema:author</text>
</g>
<!-- Rschema:text -->
<g id="node17" class="node"><title>Rschema:text</title>
<ellipse fill="none" stroke="blue" cx="1265.83" cy="-929.93" rx="67.6881" ry="18"/>
<text text-anchor="middle" x="1265.83" y="-926.23" font-family="Times,serif" font-size="14.00">schema:text</text>
</g>
<!-- Rmy_ns:Movie&#45;&gt;Rschema:text -->
<g id="edge22" class="edge"><title>Rmy_ns:Movie&#45;&gt;Rschema:text</title>
<path fill="none" stroke="black" d="M818.486,-704.91C843.502,-711.74 870.367,-723.764 887.043,-744.93 927.231,-795.939 858.831,-844.305 905.043,-889.93 905.361,-890.244 1087.93,-910.422 1192.84,-921.995"/>
<polygon fill="black" stroke="black" points="1192.73,-925.504 1203.05,-923.121 1193.49,-918.546 1192.73,-925.504"/>
<text text-anchor="middle" x="1007.54" y="-916.73" font-family="Times,serif" font-size="14.00">my_ns:cinematographer</text>
</g>
<!-- Rhttps://www.imdb.com/title/tt0015864/ -->
<g id="node18" class="node"><title>Rhttps://www.imdb.com/title/tt0015864/</title>
<ellipse fill="none" stroke="blue" cx="191.733" cy="-485.93" rx="191.966" ry="18"/>
<text text-anchor="middle" x="191.733" y="-482.23" font-family="Times,serif" font-size="14.00">https://www.imdb.com/title/tt0015864/</text>
</g>
<!-- Rhttps://www.imdb.com/title/tt0015864/&#45;&gt;Rmy_ns:Movie -->
<g id="edge24" class="edge"><title>Rhttps://www.imdb.com/title/tt0015864/&#45;&gt;Rmy_ns:Movie</title>
<path fill="none" stroke="black" d="M213.201,-503.91C248.709,-533.95 325.258,-593.722 401.466,-620.93 487.811,-651.756 526.88,-598.413 606.466,-643.93 618.04,-650.549 613.237,-660.74 624.466,-667.93 640.002,-677.876 658.499,-684.343 676.606,-688.533"/>
<polygon fill="black" stroke="black" points="676.098,-692.003 686.604,-690.634 677.538,-685.152 676.098,-692.003"/>
<text text-anchor="middle" x="503.966" y="-647.73" font-family="Times,serif" font-size="14.00">rdf:type</text>
</g>
<!-- LNone -->
<g id="node19" class="node"><title>LNone</title>
<polygon fill="none" stroke="black" points="728.254,-754.93 728.254,-790.93 783.254,-790.93 783.254,-754.93 728.254,-754.93"/>
<text text-anchor="middle" x="755.754" y="-769.23" font-family="Times,serif" font-size="14.00">None</text>
</g>
<!-- Rhttps://www.imdb.com/title/tt0015864/&#45;&gt;LNone -->
<g id="edge25" class="edge"><title>Rhttps://www.imdb.com/title/tt0015864/&#45;&gt;LNone</title>
<path fill="none" stroke="black" d="M207.765,-504.038C239.313,-540.605 316.565,-622.844 401.466,-658.93 485.844,-694.793 532.623,-627.588 606.466,-681.93 622.495,-693.725 610.065,-709.194 624.466,-722.93 650.229,-747.503 689.347,-760.341 717.997,-766.818"/>
<polygon fill="black" stroke="black" points="717.529,-770.296 728.035,-768.927 718.968,-763.446 717.529,-770.296"/>
<text text-anchor="middle" x="503.966" y="-685.73" font-family="Times,serif" font-size="14.00">my_ns:cinematographer</text>
</g>
<!-- Rhttps://www.imdb.com/title/tt0015864/&#45;&gt;LNone -->
<g id="edge27" class="edge"><title>Rhttps://www.imdb.com/title/tt0015864/&#45;&gt;LNone</title>
<path fill="none" stroke="black" d="M204.174,-504.075C231.989,-546.407 307.799,-651.537 401.466,-696.93 483.971,-736.913 517.145,-699.252 606.466,-719.93 645.711,-729.015 688.904,-745.199 718.499,-757.301"/>
<polygon fill="black" stroke="black" points="717.411,-760.639 727.989,-761.233 720.09,-754.172 717.411,-760.639"/>
<text text-anchor="middle" x="503.966" y="-723.73" font-family="Times,serif" font-size="14.00">my_ns:imdbMetascore</text>
</g>
<!-- L$5.45M -->
<g id="node20" class="node"><title>L$5.45M</title>
<polygon fill="none" stroke="black" points="719.754,-327.93 719.754,-363.93 791.754,-363.93 791.754,-327.93 719.754,-327.93"/>
<text text-anchor="middle" x="755.754" y="-342.23" font-family="Times,serif" font-size="14.00">$5.45M</text>
</g>
<!-- Rhttps://www.imdb.com/title/tt0015864/&#45;&gt;L$5.45M -->
<g id="edge26" class="edge"><title>Rhttps://www.imdb.com/title/tt0015864/&#45;&gt;L$5.45M</title>
<path fill="none" stroke="black" d="M228.379,-468.156C269.209,-448.534 338.595,-417.414 401.466,-399.93 509.561,-369.868 641.217,-355.332 709.217,-349.388"/>
<polygon fill="black" stroke="black" points="709.904,-352.842 719.571,-348.506 709.31,-345.867 709.904,-352.842"/>
<text text-anchor="middle" x="503.966" y="-403.73" font-family="Times,serif" font-size="14.00">my_ns:grossIncome</text>
</g>
<!-- L8.2 -->
<g id="node21" class="node"><title>L8.2</title>
<polygon fill="none" stroke="black" points="728.754,-272.93 728.754,-308.93 782.754,-308.93 782.754,-272.93 728.754,-272.93"/>
<text text-anchor="middle" x="755.754" y="-287.23" font-family="Times,serif" font-size="14.00">8.2</text>
</g>
<!-- Rhttps://www.imdb.com/title/tt0015864/&#45;&gt;L8.2 -->
<g id="edge28" class="edge"><title>Rhttps://www.imdb.com/title/tt0015864/&#45;&gt;L8.2</title>
<path fill="none" stroke="black" d="M212.257,-467.895C247.232,-436.725 324.165,-373.214 401.466,-342.93 511.099,-299.979 652.514,-292.137 718.209,-290.95"/>
<polygon fill="black" stroke="black" points="718.508,-294.446 728.459,-290.809 718.411,-287.447 718.508,-294.446"/>
<text text-anchor="middle" x="503.966" y="-346.73" font-family="Times,serif" font-size="14.00">my_ns:imdbRating</text>
</g>
<!-- L93,057 -->
<g id="node22" class="node"><title>L93,057</title>
<polygon fill="none" stroke="black" points="722.754,-217.93 722.754,-253.93 788.754,-253.93 788.754,-217.93 722.754,-217.93"/>
<text text-anchor="middle" x="755.754" y="-232.23" font-family="Times,serif" font-size="14.00">93,057</text>
</g>
<!-- Rhttps://www.imdb.com/title/tt0015864/&#45;&gt;L93,057 -->
<g id="edge29" class="edge"><title>Rhttps://www.imdb.com/title/tt0015864/&#45;&gt;L93,057</title>
<path fill="none" stroke="black" d="M204.745,-467.671C233.219,-426.103 309.377,-324.568 401.466,-279.93 504.627,-229.924 643.757,-229.282 712.581,-232.723"/>
<polygon fill="black" stroke="black" points="712.432,-236.22 722.611,-233.279 712.82,-229.231 712.432,-236.22"/>
<text text-anchor="middle" x="503.966" y="-283.73" font-family="Times,serif" font-size="14.00">my_ns:imdbVotes</text>
</g>
<!-- LCharles Chaplin -->
<g id="node23" class="node"><title>LCharles Chaplin</title>
<polygon fill="none" stroke="black" points="689.754,-161.93 689.754,-197.93 821.754,-197.93 821.754,-161.93 689.754,-161.93"/>
<text text-anchor="middle" x="755.754" y="-176.23" font-family="Times,serif" font-size="14.00">Charles Chaplin</text>
</g>
<!-- Rhttps://www.imdb.com/title/tt0015864/&#45;&gt;LCharles Chaplin -->
<g id="edge30" class="edge"><title>Rhttps://www.imdb.com/title/tt0015864/&#45;&gt;LCharles Chaplin</title>
<path fill="none" stroke="black" d="M200.442,-467.607C222.828,-416.988 293.197,-275.01 401.466,-214.93 404.485,-213.254 576.542,-196.76 679.397,-187.024"/>
<polygon fill="black" stroke="black" points="679.807,-190.501 689.433,-186.075 679.148,-183.532 679.807,-190.501"/>
<text text-anchor="middle" x="503.966" y="-218.73" font-family="Times,serif" font-size="14.00">schema:author</text>
</g>
<!-- Rhttps://www.imdb.com/title/tt0015864/&#45;&gt;LCharles Chaplin -->
<g id="edge36" class="edge"><title>Rhttps://www.imdb.com/title/tt0015864/&#45;&gt;LCharles Chaplin</title>
<path fill="none" stroke="black" d="M198.223,-467.73C216.28,-411.543 279.755,-240.707 401.466,-175.93 488.913,-129.388 606.629,-143.16 681.62,-159.67"/>
<polygon fill="black" stroke="black" points="680.929,-163.102 691.456,-161.906 682.48,-156.276 680.929,-163.102"/>
<text text-anchor="middle" x="503.966" y="-179.73" font-family="Times,serif" font-size="14.00">schema:producer</text>
</g>
<!-- LNot Rated -->
<g id="node24" class="node"><title>LNot Rated</title>
<polygon fill="none" stroke="black" points="710.754,-622.93 710.754,-658.93 800.754,-658.93 800.754,-622.93 710.754,-622.93"/>
<text text-anchor="middle" x="755.754" y="-637.23" font-family="Times,serif" font-size="14.00">Not Rated</text>
</g>
<!-- Rhttps://www.imdb.com/title/tt0015864/&#45;&gt;LNot Rated -->
<g id="edge31" class="edge"><title>Rhttps://www.imdb.com/title/tt0015864/&#45;&gt;LNot Rated</title>
<path fill="none" stroke="black" d="M224.893,-503.786C264.976,-525.199 336.176,-560.505 401.466,-578.93 489.91,-603.888 517.446,-583.112 606.466,-605.93 614.781,-608.061 616.244,-610.464 624.466,-612.93 649.19,-620.342 677.108,-626.612 700.742,-631.327"/>
<polygon fill="black" stroke="black" points="700.1,-634.767 710.586,-633.251 701.443,-627.897 700.1,-634.767"/>
<text text-anchor="middle" x="503.966" y="-610.73" font-family="Times,serif" font-size="14.00">schema:contentRating</text>
</g>
<!-- L1925&#45;12&#45;02|Datatype: xsd:date -->
<g id="node25" class="node"><title>L1925&#45;12&#45;02|Datatype: xsd:date</title>
<polygon fill="none" stroke="black" points="679.754,-557.93 679.754,-603.93 831.754,-603.93 831.754,-557.93 679.754,-557.93"/>
<text text-anchor="middle" x="755.754" y="-588.73" font-family="Times,serif" font-size="14.00">1925&#45;12&#45;02</text>
<polyline fill="none" stroke="black" points="679.754,-580.93 831.754,-580.93 "/>
<text text-anchor="middle" x="755.754" y="-565.73" font-family="Times,serif" font-size="14.00">Datatype: xsd:date</text>
</g>
<!-- Rhttps://www.imdb.com/title/tt0015864/&#45;&gt;L1925&#45;12&#45;02|Datatype: xsd:date -->
<g id="edge32" class="edge"><title>Rhttps://www.imdb.com/title/tt0015864/&#45;&gt;L1925&#45;12&#45;02|Datatype: xsd:date</title>
<path fill="none" stroke="black" d="M271.881,-502.294C310.835,-510.14 358.537,-519.436 401.466,-526.93 492.639,-542.844 597.508,-558.546 669.159,-568.88"/>
<polygon fill="black" stroke="black" points="669.087,-572.406 679.483,-570.365 670.084,-565.477 669.087,-572.406"/>
<text text-anchor="middle" x="503.966" y="-563.73" font-family="Times,serif" font-size="14.00">schema:datePublished</text>
</g>
<!-- L95 min|Datatype: xsd:time -->
<g id="node26" class="node"><title>L95 min|Datatype: xsd:time</title>
<polygon fill="none" stroke="black" points="679.754,-492.93 679.754,-538.93 831.754,-538.93 831.754,-492.93 679.754,-492.93"/>
<text text-anchor="middle" x="755.754" y="-523.73" font-family="Times,serif" font-size="14.00">95 min</text>
<polyline fill="none" stroke="black" points="679.754,-515.93 831.754,-515.93 "/>
<text text-anchor="middle" x="755.754" y="-500.73" font-family="Times,serif" font-size="14.00">Datatype: xsd:time</text>
</g>
<!-- Rhttps://www.imdb.com/title/tt0015864/&#45;&gt;L95 min|Datatype: xsd:time -->
<g id="edge33" class="edge"><title>Rhttps://www.imdb.com/title/tt0015864/&#45;&gt;L95 min|Datatype: xsd:time</title>
<path fill="none" stroke="black" d="M358.697,-494.789C460.788,-500.238 587.364,-506.995 669.536,-511.381"/>
<polygon fill="black" stroke="black" points="669.409,-514.879 679.581,-511.917 669.782,-507.889 669.409,-514.879"/>
<text text-anchor="middle" x="503.966" y="-511.73" font-family="Times,serif" font-size="14.00">schema:duration</text>
</g>
<!-- LAdventure, Comedy, Drama -->
<g id="node27" class="node"><title>LAdventure, Comedy, Drama</title>
<polygon fill="none" stroke="black" points="648.754,-437.93 648.754,-473.93 862.754,-473.93 862.754,-437.93 648.754,-437.93"/>
<text text-anchor="middle" x="755.754" y="-452.23" font-family="Times,serif" font-size="14.00">Adventure, Comedy, Drama</text>
</g>
<!-- Rhttps://www.imdb.com/title/tt0015864/&#45;&gt;LAdventure, Comedy, Drama -->
<g id="edge34" class="edge"><title>Rhttps://www.imdb.com/title/tt0015864/&#45;&gt;LAdventure, Comedy, Drama</title>
<path fill="none" stroke="black" d="M358.697,-477.071C448.576,-472.273 557.433,-466.462 638.26,-462.148"/>
<polygon fill="black" stroke="black" points="638.675,-465.631 648.474,-461.603 638.301,-458.641 638.675,-465.631"/>
<text text-anchor="middle" x="503.966" y="-478.73" font-family="Times,serif" font-size="14.00">schema:genre</text>
</g>
<!-- LTHE GOLD RUSH  -->
<g id="node28" class="node"><title>LTHE GOLD RUSH </title>
<polygon fill="none" stroke="black" points="683.254,-382.93 683.254,-418.93 828.254,-418.93 828.254,-382.93 683.254,-382.93"/>
<text text-anchor="middle" x="755.754" y="-397.23" font-family="Times,serif" font-size="14.00">THE GOLD RUSH</text>
</g>
<!-- Rhttps://www.imdb.com/title/tt0015864/&#45;&gt;LTHE GOLD RUSH  -->
<g id="edge35" class="edge"><title>Rhttps://www.imdb.com/title/tt0015864/&#45;&gt;LTHE GOLD RUSH </title>
<path fill="none" stroke="black" d="M271.822,-469.563C310.762,-461.815 358.469,-452.781 401.466,-445.93 494.146,-431.162 601.12,-418.086 672.857,-409.888"/>
<polygon fill="black" stroke="black" points="673.639,-413.322 683.18,-408.714 672.848,-406.367 673.639,-413.322"/>
<text text-anchor="middle" x="503.966" y="-449.73" font-family="Times,serif" font-size="14.00">schema:headline</text>
</g>
<!-- Rmy_ns:company_0000012 -->
<g id="node29" class="node"><title>Rmy_ns:company_0000012</title>
<ellipse fill="none" stroke="blue" cx="755.754" cy="-863.93" rx="131.077" ry="18"/>
<text text-anchor="middle" x="755.754" y="-860.23" font-family="Times,serif" font-size="14.00">my_ns:company_0000012</text>
</g>
<!-- Rhttps://www.imdb.com/title/tt0015864/&#45;&gt;Rmy_ns:company_0000012 -->
<g id="edge37" class="edge"><title>Rhttps://www.imdb.com/title/tt0015864/&#45;&gt;Rmy_ns:company_0000012</title>
<path fill="none" stroke="black" d="M198.091,-504.078C215.962,-561.017 279.41,-736.741 401.466,-810.93 440.561,-834.693 561.292,-822.69 606.466,-829.93 631.909,-834.007 659.496,-839.914 683.897,-845.665"/>
<polygon fill="black" stroke="black" points="683.248,-849.108 693.788,-848.028 684.875,-842.3 683.248,-849.108"/>
<text text-anchor="middle" x="503.966" y="-833.73" font-family="Times,serif" font-size="14.00">schema:productionCompany</text>
</g>
<!-- Rmy_ns:company_0000012&#45;&gt;Rmy_ns:productionCompany -->
<g id="edge52" class="edge"><title>Rmy_ns:company_0000012&#45;&gt;Rmy_ns:productionCompany</title>
<path fill="none" stroke="black" d="M862.437,-874.542C871.498,-878.664 879.91,-884.016 887.043,-890.93 911.657,-914.788 878.662,-944.04 905.043,-965.93 939.337,-994.386 1046.94,-996.738 1135.61,-993.231"/>
<polygon fill="black" stroke="black" points="1135.93,-996.721 1145.77,-992.801 1135.63,-989.727 1135.93,-996.721"/>
<text text-anchor="middle" x="1007.54" y="-998.73" font-family="Times,serif" font-size="14.00">rdf:type</text>
</g>
<!-- LCharles Chaplin Productions -->
<g id="node41" class="node"><title>LCharles Chaplin Productions</title>
<polygon fill="none" stroke="black" points="1154.33,-1020.93 1154.33,-1056.93 1377.33,-1056.93 1377.33,-1020.93 1154.33,-1020.93"/>
<text text-anchor="middle" x="1265.83" y="-1035.23" font-family="Times,serif" font-size="14.00">Charles Chaplin Productions</text>
</g>
<!-- Rmy_ns:company_0000012&#45;&gt;LCharles Chaplin Productions -->
<g id="edge53" class="edge"><title>Rmy_ns:company_0000012&#45;&gt;LCharles Chaplin Productions</title>
<path fill="none" stroke="black" d="M863.721,-874.188C872.41,-878.4 880.388,-883.87 887.043,-890.93 924.94,-931.132 864.521,-976.374 905.043,-1013.93 979.8,-1083.22 1104.96,-1074.49 1186.2,-1058.96"/>
<polygon fill="black" stroke="black" points="1187.25,-1062.32 1196.38,-1056.93 1185.89,-1055.45 1187.25,-1062.32"/>
<text text-anchor="middle" x="1007.54" y="-1073.73" font-family="Times,serif" font-size="14.00">foaf:name</text>
</g>
<!-- Rhttps://www.imdb.com/title/tt0021749/ -->
<g id="node30" class="node"><title>Rhttps://www.imdb.com/title/tt0021749/</title>
<ellipse fill="none" stroke="blue" cx="191.733" cy="-1066.93" rx="191.966" ry="18"/>
<text text-anchor="middle" x="191.733" y="-1063.23" font-family="Times,serif" font-size="14.00">https://www.imdb.com/title/tt0021749/</text>
</g>
<!-- Rhttps://www.imdb.com/title/tt0021749/&#45;&gt;Rmy_ns:Movie -->
<g id="edge38" class="edge"><title>Rhttps://www.imdb.com/title/tt0021749/&#45;&gt;Rmy_ns:Movie</title>
<path fill="none" stroke="black" d="M198.877,-1048.67C218.399,-993.816 284.701,-829.856 401.466,-758.93 440.667,-735.117 561.398,-743.45 606.466,-734.93 637.449,-729.072 671.508,-720.285 699.164,-712.534"/>
<polygon fill="black" stroke="black" points="700.379,-715.827 709.045,-709.733 698.469,-709.093 700.379,-715.827"/>
<text text-anchor="middle" x="503.966" y="-762.73" font-family="Times,serif" font-size="14.00">rdf:type</text>
</g>
<!-- Rhttps://www.imdb.com/title/tt0021749/&#45;&gt;LNone -->
<g id="edge44" class="edge"><title>Rhttps://www.imdb.com/title/tt0021749/&#45;&gt;LNone</title>
<path fill="none" stroke="black" d="M200.181,-1048.78C222.124,-997.995 291.937,-854.315 401.466,-795.93 428.871,-781.321 633.2,-775.443 718.017,-773.616"/>
<polygon fill="black" stroke="black" points="718.296,-777.111 728.221,-773.404 718.15,-770.113 718.296,-777.111"/>
<text text-anchor="middle" x="503.966" y="-799.73" font-family="Times,serif" font-size="14.00">schema:author</text>
</g>
<!-- Rhttps://www.imdb.com/title/tt0021749/&#45;&gt;LNone -->
<g id="edge50" class="edge"><title>Rhttps://www.imdb.com/title/tt0021749/&#45;&gt;LNone</title>
<path fill="none" stroke="black" d="M205.027,-1048.79C233.808,-1008.02 310.092,-909.502 401.466,-867.93 484.753,-830.037 520.209,-879.462 606.466,-848.93 615.53,-845.721 616.133,-841.726 624.466,-836.93 655.492,-819.07 692.203,-801.325 718.737,-789.066"/>
<polygon fill="black" stroke="black" points="720.391,-792.157 728.022,-784.807 717.474,-785.795 720.391,-792.157"/>
<text text-anchor="middle" x="503.966" y="-871.73" font-family="Times,serif" font-size="14.00">schema:producer</text>
</g>
<!-- Rhttps://www.imdb.com/title/tt0021749/&#45;&gt;Rmy_ns:company_0000012 -->
<g id="edge51" class="edge"><title>Rhttps://www.imdb.com/title/tt0021749/&#45;&gt;Rmy_ns:company_0000012</title>
<path fill="none" stroke="black" d="M210.947,-1048.85C245.042,-1016.21 322.241,-947.886 401.466,-915.93 486.804,-881.508 515.443,-900.426 606.466,-886.93 623.377,-884.422 641.362,-881.689 658.759,-879.01"/>
<polygon fill="black" stroke="black" points="659.572,-882.426 668.921,-877.442 658.504,-875.508 659.572,-882.426"/>
<text text-anchor="middle" x="503.966" y="-919.73" font-family="Times,serif" font-size="14.00">schema:productionCompany</text>
</g>
<!-- LMark Marklatt -->
<g id="node31" class="node"><title>LMark Marklatt</title>
<polygon fill="none" stroke="black" points="693.754,-1415.93 693.754,-1451.93 817.754,-1451.93 817.754,-1415.93 693.754,-1415.93"/>
<text text-anchor="middle" x="755.754" y="-1430.23" font-family="Times,serif" font-size="14.00">Mark Marklatt</text>
</g>
<!-- Rhttps://www.imdb.com/title/tt0021749/&#45;&gt;LMark Marklatt -->
<g id="edge39" class="edge"><title>Rhttps://www.imdb.com/title/tt0021749/&#45;&gt;LMark Marklatt</title>
<path fill="none" stroke="black" d="M197.284,-1085.06C213.277,-1144.5 273.016,-1334.16 401.466,-1411.93 487.495,-1464.02 607.909,-1458.5 683.588,-1447.74"/>
<polygon fill="black" stroke="black" points="684.129,-1451.2 693.504,-1446.27 683.098,-1444.28 684.129,-1451.2"/>
<text text-anchor="middle" x="503.966" y="-1458.73" font-family="Times,serif" font-size="14.00">my_ns:cinematographer</text>
</g>
<!-- L$0.02M -->
<g id="node32" class="node"><title>L$0.02M</title>
<polygon fill="none" stroke="black" points="719.754,-1360.93 719.754,-1396.93 791.754,-1396.93 791.754,-1360.93 719.754,-1360.93"/>
<text text-anchor="middle" x="755.754" y="-1375.23" font-family="Times,serif" font-size="14.00">$0.02M</text>
</g>
<!-- Rhttps://www.imdb.com/title/tt0021749/&#45;&gt;L$0.02M -->
<g id="edge40" class="edge"><title>Rhttps://www.imdb.com/title/tt0021749/&#45;&gt;L$0.02M</title>
<path fill="none" stroke="black" d="M199.892,-1085.23C221.303,-1137.17 290.334,-1285.81 401.466,-1347.93 499.999,-1403.01 638.599,-1395.1 709.34,-1386.17"/>
<polygon fill="black" stroke="black" points="710.232,-1389.58 719.684,-1384.79 709.31,-1382.64 710.232,-1389.58"/>
<text text-anchor="middle" x="503.966" y="-1396.73" font-family="Times,serif" font-size="14.00">my_ns:grossIncome</text>
</g>
<!-- L99 -->
<g id="node33" class="node"><title>L99</title>
<polygon fill="none" stroke="black" points="728.754,-1305.93 728.754,-1341.93 782.754,-1341.93 782.754,-1305.93 728.754,-1305.93"/>
<text text-anchor="middle" x="755.754" y="-1320.23" font-family="Times,serif" font-size="14.00">99</text>
</g>
<!-- Rhttps://www.imdb.com/title/tt0021749/&#45;&gt;L99 -->
<g id="edge41" class="edge"><title>Rhttps://www.imdb.com/title/tt0021749/&#45;&gt;L99</title>
<path fill="none" stroke="black" d="M203.868,-1085.16C231.292,-1128.22 306.796,-1236.14 401.466,-1282.93 507.342,-1335.26 652.221,-1332.28 718.72,-1327.43"/>
<polygon fill="black" stroke="black" points="719.008,-1330.92 728.702,-1326.64 718.458,-1323.94 719.008,-1330.92"/>
<text text-anchor="middle" x="503.966" y="-1332.73" font-family="Times,serif" font-size="14.00">my_ns:imdbMetascore</text>
</g>
<!-- L8.5 -->
<g id="node34" class="node"><title>L8.5</title>
<polygon fill="none" stroke="black" points="728.754,-1250.93 728.754,-1286.93 782.754,-1286.93 782.754,-1250.93 728.754,-1250.93"/>
<text text-anchor="middle" x="755.754" y="-1265.23" font-family="Times,serif" font-size="14.00">8.5</text>
</g>
<!-- Rhttps://www.imdb.com/title/tt0021749/&#45;&gt;L8.5 -->
<g id="edge42" class="edge"><title>Rhttps://www.imdb.com/title/tt0021749/&#45;&gt;L8.5</title>
<path fill="none" stroke="black" d="M210.655,-1084.87C244.572,-1117.63 321.904,-1186.69 401.466,-1218.93 510.506,-1263.11 652.208,-1269.26 718.091,-1269.49"/>
<polygon fill="black" stroke="black" points="718.374,-1272.99 728.37,-1269.48 718.366,-1265.99 718.374,-1272.99"/>
<text text-anchor="middle" x="503.966" y="-1267.73" font-family="Times,serif" font-size="14.00">my_ns:imdbRating</text>
</g>
<!-- L154,848 -->
<g id="node35" class="node"><title>L154,848</title>
<polygon fill="none" stroke="black" points="718.254,-1195.93 718.254,-1231.93 793.254,-1231.93 793.254,-1195.93 718.254,-1195.93"/>
<text text-anchor="middle" x="755.754" y="-1210.23" font-family="Times,serif" font-size="14.00">154,848</text>
</g>
<!-- Rhttps://www.imdb.com/title/tt0021749/&#45;&gt;L154,848 -->
<g id="edge43" class="edge"><title>Rhttps://www.imdb.com/title/tt0021749/&#45;&gt;L154,848</title>
<path fill="none" stroke="black" d="M225.311,-1084.75C265.522,-1105.96 336.561,-1140.89 401.466,-1159.93 508.638,-1191.38 639.77,-1205.3 708.177,-1210.79"/>
<polygon fill="black" stroke="black" points="707.963,-1214.29 718.204,-1211.57 708.506,-1207.31 707.963,-1214.29"/>
<text text-anchor="middle" x="503.966" y="-1203.73" font-family="Times,serif" font-size="14.00">my_ns:imdbVotes</text>
</g>
<!-- LG -->
<g id="node36" class="node"><title>LG</title>
<polygon fill="none" stroke="black" points="728.754,-1140.93 728.754,-1176.93 782.754,-1176.93 782.754,-1140.93 728.754,-1140.93"/>
<text text-anchor="middle" x="755.754" y="-1155.23" font-family="Times,serif" font-size="14.00">G</text>
</g>
<!-- Rhttps://www.imdb.com/title/tt0021749/&#45;&gt;LG -->
<g id="edge45" class="edge"><title>Rhttps://www.imdb.com/title/tt0021749/&#45;&gt;LG</title>
<path fill="none" stroke="black" d="M267.381,-1083.54C307.085,-1092.06 356.799,-1102.24 401.466,-1109.93 516.789,-1129.78 654.37,-1147.03 718.503,-1154.7"/>
<polygon fill="black" stroke="black" points="718.171,-1158.18 728.515,-1155.89 718.998,-1151.23 718.171,-1158.18"/>
<text text-anchor="middle" x="503.966" y="-1144.73" font-family="Times,serif" font-size="14.00">schema:contentRating</text>
</g>
<!-- L1931&#45;07&#45;23|Datatype: xsd:date -->
<g id="node37" class="node"><title>L1931&#45;07&#45;23|Datatype: xsd:date</title>
<polygon fill="none" stroke="black" points="679.754,-1075.93 679.754,-1121.93 831.754,-1121.93 831.754,-1075.93 679.754,-1075.93"/>
<text text-anchor="middle" x="755.754" y="-1106.73" font-family="Times,serif" font-size="14.00">1931&#45;07&#45;23</text>
<polyline fill="none" stroke="black" points="679.754,-1098.93 831.754,-1098.93 "/>
<text text-anchor="middle" x="755.754" y="-1083.73" font-family="Times,serif" font-size="14.00">Datatype: xsd:date</text>
</g>
<!-- Rhttps://www.imdb.com/title/tt0021749/&#45;&gt;L1931&#45;07&#45;23|Datatype: xsd:date -->
<g id="edge46" class="edge"><title>Rhttps://www.imdb.com/title/tt0021749/&#45;&gt;L1931&#45;07&#45;23|Datatype: xsd:date</title>
<path fill="none" stroke="black" d="M356.048,-1076.23C458.562,-1082.07 586.583,-1089.35 669.47,-1094.07"/>
<polygon fill="black" stroke="black" points="669.418,-1097.58 679.6,-1094.65 669.816,-1090.59 669.418,-1097.58"/>
<text text-anchor="middle" x="503.966" y="-1094.73" font-family="Times,serif" font-size="14.00">schema:datePublished</text>
</g>
<!-- L87 min|Datatype: xsd:time -->
<g id="node38" class="node"><title>L87 min|Datatype: xsd:time</title>
<polygon fill="none" stroke="black" points="679.754,-1010.93 679.754,-1056.93 831.754,-1056.93 831.754,-1010.93 679.754,-1010.93"/>
<text text-anchor="middle" x="755.754" y="-1041.73" font-family="Times,serif" font-size="14.00">87 min</text>
<polyline fill="none" stroke="black" points="679.754,-1033.93 831.754,-1033.93 "/>
<text text-anchor="middle" x="755.754" y="-1018.73" font-family="Times,serif" font-size="14.00">Datatype: xsd:time</text>
</g>
<!-- Rhttps://www.imdb.com/title/tt0021749/&#45;&gt;L87 min|Datatype: xsd:time -->
<g id="edge47" class="edge"><title>Rhttps://www.imdb.com/title/tt0021749/&#45;&gt;L87 min|Datatype: xsd:time</title>
<path fill="none" stroke="black" d="M354.916,-1057.41C457.63,-1051.38 586.307,-1043.82 669.498,-1038.94"/>
<polygon fill="black" stroke="black" points="669.887,-1042.42 679.665,-1038.34 669.477,-1035.43 669.887,-1042.42"/>
<text text-anchor="middle" x="503.966" y="-1058.73" font-family="Times,serif" font-size="14.00">schema:duration</text>
</g>
<!-- LComedy, Drama, Romance -->
<g id="node39" class="node"><title>LComedy, Drama, Romance</title>
<polygon fill="none" stroke="black" points="653.254,-955.93 653.254,-991.93 858.254,-991.93 858.254,-955.93 653.254,-955.93"/>
<text text-anchor="middle" x="755.754" y="-970.23" font-family="Times,serif" font-size="14.00">Comedy, Drama, Romance</text>
</g>
<!-- Rhttps://www.imdb.com/title/tt0021749/&#45;&gt;LComedy, Drama, Romance -->
<g id="edge48" class="edge"><title>Rhttps://www.imdb.com/title/tt0021749/&#45;&gt;LComedy, Drama, Romance</title>
<path fill="none" stroke="black" d="M267.39,-1050.37C307.096,-1041.86 356.81,-1031.68 401.466,-1023.93 482.035,-1009.94 573.452,-997.086 643.106,-987.913"/>
<polygon fill="black" stroke="black" points="643.761,-991.357 653.221,-986.586 642.85,-984.416 643.761,-991.357"/>
<text text-anchor="middle" x="503.966" y="-1027.73" font-family="Times,serif" font-size="14.00">schema:genre</text>
</g>
<!-- LCITY LBGHTS  -->
<g id="node40" class="node"><title>LCITY LBGHTS </title>
<polygon fill="none" stroke="black" points="696.254,-900.93 696.254,-936.93 815.254,-936.93 815.254,-900.93 696.254,-900.93"/>
<text text-anchor="middle" x="755.754" y="-915.23" font-family="Times,serif" font-size="14.00">CITY LBGHTS</text>
</g>
<!-- Rhttps://www.imdb.com/title/tt0021749/&#45;&gt;LCITY LBGHTS  -->
<g id="edge49" class="edge"><title>Rhttps://www.imdb.com/title/tt0021749/&#45;&gt;LCITY LBGHTS </title>
<path fill="none" stroke="black" d="M225.709,-1049.19C266.026,-1028.27 336.88,-993.934 401.466,-974.93 497.996,-946.526 613.861,-931.644 685.915,-924.545"/>
<polygon fill="black" stroke="black" points="686.602,-927.995 696.221,-923.554 685.931,-921.027 686.602,-927.995"/>
<text text-anchor="middle" x="503.966" y="-978.73" font-family="Times,serif" font-size="14.00">schema:headline</text>
</g>
</g>
</svg>

