<?xml version="1.0" encoding="UTF-8" standalone="no"?>
<!DOCTYPE svg PUBLIC "-//W3C//DTD SVG 1.1//EN"
 "http://www.w3.org/Graphics/SVG/1.1/DTD/svg11.dtd">
<!-- Generated by graphviz version 2.38.0 (20140413.2041)
 -->
<!-- Title: %3 Pages: 1 -->
<svg width="1781pt" height="1699pt"
 viewBox="0.00 0.00 1781.00 1698.50" xmlns="http://www.w3.org/2000/svg" xmlns:xlink="http://www.w3.org/1999/xlink">
<g id="graph0" class="graph" transform="scale(1 1) rotate(0) translate(4 1694.5)">
<title>%3</title>
<polygon fill="white" stroke="none" points="-4,4 -4,-1694.5 1777,-1694.5 1777,4 -4,4"/>
<text text-anchor="middle" x="886.499" y="-112.8" font-family="Times,serif" font-size="14.00">Namespaces:</text>
<text text-anchor="middle" x="886.499" y="-97.8" font-family="Times,serif" font-size="14.00">rdf: http://www.w3.org/1999/02/22&#45;rdf&#45;syntax&#45;ns#</text>
<text text-anchor="middle" x="886.499" y="-82.8" font-family="Times,serif" font-size="14.00">rdfs: http://www.w3.org/2000/01/rdf&#45;schema#</text>
<text text-anchor="middle" x="886.499" y="-67.8" font-family="Times,serif" font-size="14.00">xml: http://www.w3.org/XML/1998/namespace</text>
<text text-anchor="middle" x="886.499" y="-52.8" font-family="Times,serif" font-size="14.00">xsd: http://www.w3.org/2001/XMLSchema#</text>
<text text-anchor="middle" x="886.499" y="-37.8" font-family="Times,serif" font-size="14.00">foaf: http://xmlns.com/foaf/0.1/</text>
<text text-anchor="middle" x="886.499" y="-22.8" font-family="Times,serif" font-size="14.00">schema: http://schema.org/</text>
<text text-anchor="middle" x="886.499" y="-7.8" font-family="Times,serif" font-size="14.00">my_ns: http://inf558.org/myfakenamespace#</text>
<!-- Rmy_ns:productionCompany -->
<g id="node1" class="node"><title>Rmy_ns:productionCompany</title>
<ellipse fill="none" stroke="blue" cx="1265.83" cy="-965.5" rx="137.576" ry="18"/>
<text text-anchor="middle" x="1265.83" y="-961.8" font-family="Times,serif" font-size="14.00">my_ns:productionCompany</text>
</g>
<!-- Rschema:Class -->
<g id="node2" class="node"><title>Rschema:Class</title>
<ellipse fill="none" stroke="blue" cx="1663.81" cy="-887.5" rx="74.9875" ry="18"/>
<text text-anchor="middle" x="1663.81" y="-883.8" font-family="Times,serif" font-size="14.00">schema:Class</text>
</g>
<!-- Rmy_ns:productionCompany&#45;&gt;Rschema:Class -->
<g id="edge1" class="edge"><title>Rmy_ns:productionCompany&#45;&gt;Rschema:Class</title>
<path fill="none" stroke="black" d="M1342.71,-950.553C1415.81,-936.155 1525.33,-914.58 1595.43,-900.773"/>
<polygon fill="black" stroke="black" points="1596.34,-904.161 1605.47,-898.794 1594.98,-897.293 1596.34,-904.161"/>
<text text-anchor="middle" x="1479.12" y="-937.3" font-family="Times,serif" font-size="14.00">rdf:type</text>
</g>
<!-- Rschema:Organization -->
<g id="node3" class="node"><title>Rschema:Organization</title>
<ellipse fill="none" stroke="blue" cx="1663.81" cy="-969.5" rx="109.381" ry="18"/>
<text text-anchor="middle" x="1663.81" y="-965.8" font-family="Times,serif" font-size="14.00">schema:Organization</text>
</g>
<!-- Rmy_ns:productionCompany&#45;&gt;Rschema:Organization -->
<g id="edge2" class="edge"><title>Rmy_ns:productionCompany&#45;&gt;Rschema:Organization</title>
<path fill="none" stroke="black" d="M1403.38,-966.879C1449.23,-967.343 1499.96,-967.855 1544.31,-968.303"/>
<polygon fill="black" stroke="black" points="1544.52,-971.805 1554.55,-968.406 1544.59,-964.806 1544.52,-971.805"/>
<text text-anchor="middle" x="1479.12" y="-972.3" font-family="Times,serif" font-size="14.00">rdfs:subClassOf</text>
</g>
<!-- Rxsd:text -->
<g id="node4" class="node"><title>Rxsd:text</title>
<ellipse fill="none" stroke="blue" cx="1663.81" cy="-707.5" rx="48.1917" ry="18"/>
<text text-anchor="middle" x="1663.81" y="-703.8" font-family="Times,serif" font-size="14.00">xsd:text</text>
</g>
<!-- Rmy_ns:productionCompany&#45;&gt;Rxsd:text -->
<g id="edge3" class="edge"><title>Rmy_ns:productionCompany&#45;&gt;Rxsd:text</title>
<path fill="none" stroke="black" d="M1375.97,-954.544C1385.96,-950.508 1395.39,-945.269 1403.62,-938.5 1419.93,-925.072 1407.96,-910.619 1421.62,-894.5 1460.45,-848.674 1488.74,-859.767 1536.62,-823.5 1574.88,-794.517 1615.03,-756.001 1639.49,-731.474"/>
<polygon fill="black" stroke="black" points="1642.01,-733.905 1646.56,-724.337 1637.04,-728.979 1642.01,-733.905"/>
<text text-anchor="middle" x="1479.12" y="-898.3" font-family="Times,serif" font-size="14.00">foaf:name</text>
</g>
<!-- Rmy_ns:imdbRating -->
<g id="node5" class="node"><title>Rmy_ns:imdbRating</title>
<ellipse fill="none" stroke="blue" cx="191.733" cy="-1672.5" rx="97.4827" ry="18"/>
<text text-anchor="middle" x="191.733" y="-1668.8" font-family="Times,serif" font-size="14.00">my_ns:imdbRating</text>
</g>
<!-- Rschema:Property -->
<g id="node6" class="node"><title>Rschema:Property</title>
<ellipse fill="none" stroke="blue" cx="755.754" cy="-1564.5" rx="90.1842" ry="18"/>
<text text-anchor="middle" x="755.754" y="-1560.8" font-family="Times,serif" font-size="14.00">schema:Property</text>
</g>
<!-- Rmy_ns:imdbRating&#45;&gt;Rschema:Property -->
<g id="edge4" class="edge"><title>Rmy_ns:imdbRating&#45;&gt;Rschema:Property</title>
<path fill="none" stroke="black" d="M285.527,-1667.56C370.164,-1661.52 498.16,-1648.56 606.466,-1621.5 642.046,-1612.61 680.671,-1597.58 709.579,-1585.18"/>
<polygon fill="black" stroke="black" points="711.215,-1588.29 718.992,-1581.09 708.425,-1581.87 711.215,-1588.29"/>
<text text-anchor="middle" x="503.966" y="-1660.3" font-family="Times,serif" font-size="14.00">rdf:type</text>
</g>
<!-- Rmy_ns:imdbMetascore -->
<g id="node7" class="node"><title>Rmy_ns:imdbMetascore</title>
<ellipse fill="none" stroke="blue" cx="191.733" cy="-1618.5" rx="116.18" ry="18"/>
<text text-anchor="middle" x="191.733" y="-1614.8" font-family="Times,serif" font-size="14.00">my_ns:imdbMetascore</text>
</g>
<!-- Rmy_ns:imdbMetascore&#45;&gt;Rschema:Property -->
<g id="edge5" class="edge"><title>Rmy_ns:imdbMetascore&#45;&gt;Rschema:Property</title>
<path fill="none" stroke="black" d="M297.425,-1610.9C381.138,-1604.51 501.453,-1594.66 606.466,-1583.5 627.315,-1581.28 649.772,-1578.57 670.746,-1575.9"/>
<polygon fill="black" stroke="black" points="671.437,-1579.34 680.909,-1574.6 670.545,-1572.4 671.437,-1579.34"/>
<text text-anchor="middle" x="503.966" y="-1606.3" font-family="Times,serif" font-size="14.00">rdf:type</text>
</g>
<!-- Rmy_ns:imdbVotes -->
<g id="node8" class="node"><title>Rmy_ns:imdbVotes</title>
<ellipse fill="none" stroke="blue" cx="191.733" cy="-1564.5" rx="92.0841" ry="18"/>
<text text-anchor="middle" x="191.733" y="-1560.8" font-family="Times,serif" font-size="14.00">my_ns:imdbVotes</text>
</g>
<!-- Rmy_ns:imdbVotes&#45;&gt;Rschema:Property -->
<g id="edge6" class="edge"><title>Rmy_ns:imdbVotes&#45;&gt;Rschema:Property</title>
<path fill="none" stroke="black" d="M284.282,-1564.5C386.028,-1564.5 549.799,-1564.5 654.812,-1564.5"/>
<polygon fill="black" stroke="black" points="655.103,-1568 665.103,-1564.5 655.103,-1561 655.103,-1568"/>
<text text-anchor="middle" x="503.966" y="-1568.3" font-family="Times,serif" font-size="14.00">rdf:type</text>
</g>
<!-- Rmy_ns:grossIncome -->
<g id="node9" class="node"><title>Rmy_ns:grossIncome</title>
<ellipse fill="none" stroke="blue" cx="191.733" cy="-1510.5" rx="103.182" ry="18"/>
<text text-anchor="middle" x="191.733" y="-1506.8" font-family="Times,serif" font-size="14.00">my_ns:grossIncome</text>
</g>
<!-- Rmy_ns:grossIncome&#45;&gt;Rschema:Property -->
<g id="edge7" class="edge"><title>Rmy_ns:grossIncome&#45;&gt;Rschema:Property</title>
<path fill="none" stroke="black" d="M287.327,-1517.34C371.257,-1523.68 497.152,-1533.88 606.466,-1545.5 627.315,-1547.72 649.772,-1550.43 670.746,-1553.1"/>
<polygon fill="black" stroke="black" points="670.545,-1556.6 680.909,-1554.4 671.437,-1549.66 670.545,-1556.6"/>
<text text-anchor="middle" x="503.966" y="-1549.3" font-family="Times,serif" font-size="14.00">rdf:type</text>
</g>
<!-- Rmy_ns:cinematographer -->
<g id="node10" class="node"><title>Rmy_ns:cinematographer</title>
<ellipse fill="none" stroke="blue" cx="191.733" cy="-1456.5" rx="123.478" ry="18"/>
<text text-anchor="middle" x="191.733" y="-1452.8" font-family="Times,serif" font-size="14.00">my_ns:cinematographer</text>
</g>
<!-- Rmy_ns:cinematographer&#45;&gt;Rschema:Property -->
<g id="edge8" class="edge"><title>Rmy_ns:cinematographer&#45;&gt;Rschema:Property</title>
<path fill="none" stroke="black" d="M305.995,-1463.5C389.895,-1470.42 506.513,-1483.72 606.466,-1508.5 641.742,-1517.25 680.088,-1531.87 708.947,-1543.98"/>
<polygon fill="black" stroke="black" points="707.78,-1547.29 718.352,-1547.98 710.519,-1540.85 707.78,-1547.29"/>
<text text-anchor="middle" x="503.966" y="-1512.3" font-family="Times,serif" font-size="14.00">rdf:type</text>
</g>
<!-- Rmy_ns:Movie -->
<g id="node11" class="node"><title>Rmy_ns:Movie</title>
<ellipse fill="none" stroke="blue" cx="755.754" cy="-677.5" rx="72.2875" ry="18"/>
<text text-anchor="middle" x="755.754" y="-673.8" font-family="Times,serif" font-size="14.00">my_ns:Movie</text>
</g>
<!-- Rmy_ns:Movie&#45;&gt;Rmy_ns:productionCompany -->
<g id="edge23" class="edge"><title>Rmy_ns:Movie&#45;&gt;Rmy_ns:productionCompany</title>
<path fill="none" stroke="black" d="M817.444,-686.888C842.896,-694.011 870.393,-706.525 887.043,-728.5 911.453,-760.717 876.365,-881.014 905.043,-909.5 937.502,-941.742 1066.33,-914.99 1110.04,-928.5 1118.79,-931.202 1119.45,-935.353 1128.04,-938.5 1139.79,-942.801 1152.37,-946.467 1164.97,-949.577"/>
<polygon fill="black" stroke="black" points="1164.52,-953.068 1175.06,-951.954 1166.13,-946.254 1164.52,-953.068"/>
<text text-anchor="middle" x="1007.54" y="-933.3" font-family="Times,serif" font-size="14.00">schema:productionCompany</text>
</g>
<!-- Rmy_ns:Movie&#45;&gt;Rschema:Class -->
<g id="edge9" class="edge"><title>Rmy_ns:Movie&#45;&gt;Rschema:Class</title>
<path fill="none" stroke="black" d="M814.644,-688.1C839.999,-695.487 868.204,-707.874 887.043,-728.5 906.393,-749.687 883.241,-771.845 905.043,-790.5 917.945,-801.54 1395.43,-857.025 1585.7,-878.754"/>
<polygon fill="black" stroke="black" points="1585.58,-882.262 1595.91,-879.919 1586.37,-875.308 1585.58,-882.262"/>
<text text-anchor="middle" x="1265.83" y="-861.3" font-family="Times,serif" font-size="14.00">rdf:type</text>
</g>
<!-- Rmy_ns:Movie&#45;&gt;Rxsd:text -->
<g id="edge11" class="edge"><title>Rmy_ns:Movie&#45;&gt;Rxsd:text</title>
<path fill="none" stroke="black" d="M823.506,-683.715C848.998,-685.875 878.346,-688.104 905.043,-689.5 1166.12,-703.153 1478.34,-706.456 1605.09,-707.25"/>
<polygon fill="black" stroke="black" points="1605.32,-710.752 1615.34,-707.312 1605.36,-703.752 1605.32,-710.752"/>
<text text-anchor="middle" x="1265.83" y="-709.3" font-family="Times,serif" font-size="14.00">schema:headline</text>
</g>
<!-- Rmy_ns:Movie&#45;&gt;Rxsd:text -->
<g id="edge15" class="edge"><title>Rmy_ns:Movie&#45;&gt;Rxsd:text</title>
<path fill="none" stroke="black" d="M828.164,-677.849C850.023,-674.251 872.191,-666.17 887.043,-649.5 914.667,-618.494 874.803,-491.96 905.043,-463.5 927.038,-442.799 1379.03,-448.53 1403.62,-455.5 1524.02,-489.633 1614.11,-623.479 1648.06,-680.997"/>
<polygon fill="black" stroke="black" points="1645.16,-682.97 1653.2,-689.863 1651.21,-679.457 1645.16,-682.97"/>
<text text-anchor="middle" x="1265.83" y="-459.3" font-family="Times,serif" font-size="14.00">schema:genre</text>
</g>
<!-- Rmy_ns:Movie&#45;&gt;Rxsd:text -->
<g id="edge16" class="edge"><title>Rmy_ns:Movie&#45;&gt;Rxsd:text</title>
<path fill="none" stroke="black" d="M812.694,-688.738C838.087,-696.297 866.881,-708.643 887.043,-728.5 902.096,-743.326 887.634,-760.527 905.043,-772.5 919.485,-782.432 1369.41,-778.143 1403.62,-777.5 1462.76,-776.389 1479.4,-787.513 1536.62,-772.5 1571.01,-763.476 1606.72,-743.977 1631.34,-728.677"/>
<polygon fill="black" stroke="black" points="1633.31,-731.569 1639.88,-723.257 1629.56,-725.658 1633.31,-731.569"/>
<text text-anchor="middle" x="1265.83" y="-783.3" font-family="Times,serif" font-size="14.00">my_ns:imdbRating</text>
</g>
<!-- Rmy_ns:Movie&#45;&gt;Rxsd:text -->
<g id="edge17" class="edge"><title>Rmy_ns:Movie&#45;&gt;Rxsd:text</title>
<path fill="none" stroke="black" d="M824.761,-671.978C845.906,-667.95 868.51,-661.099 887.043,-649.5 898.046,-642.614 893.571,-632.574 905.043,-626.5 1003,-574.631 1294.51,-591.944 1403.62,-611.5 1485.71,-626.214 1575.8,-665.196 1625.19,-688.714"/>
<polygon fill="black" stroke="black" points="1623.69,-691.876 1634.22,-693.057 1626.73,-685.568 1623.69,-691.876"/>
<text text-anchor="middle" x="1265.83" y="-615.3" font-family="Times,serif" font-size="14.00">my_ns:imdbMetascore</text>
</g>
<!-- Rmy_ns:Movie&#45;&gt;Rxsd:text -->
<g id="edge18" class="edge"><title>Rmy_ns:Movie&#45;&gt;Rxsd:text</title>
<path fill="none" stroke="black" d="M827.709,-675.837C849.021,-672.028 870.979,-664.331 887.043,-649.5 907.498,-630.614 883.316,-606.908 905.043,-589.5 943.098,-559.01 1400.25,-573.017 1403.62,-573.5 1464.59,-582.256 1481.57,-584.862 1536.62,-612.5 1574.71,-631.623 1613.06,-662.545 1637.32,-683.889"/>
<polygon fill="black" stroke="black" points="1635.19,-686.682 1644.99,-690.729 1639.86,-681.459 1635.19,-686.682"/>
<text text-anchor="middle" x="1265.83" y="-577.3" font-family="Times,serif" font-size="14.00">my_ns:imdbVotes</text>
</g>
<!-- Rmy_ns:Movie&#45;&gt;Rxsd:text -->
<g id="edge19" class="edge"><title>Rmy_ns:Movie&#45;&gt;Rxsd:text</title>
<path fill="none" stroke="black" d="M807.927,-689.97C836.365,-696.452 872.483,-703.95 905.043,-708.5 1183.09,-747.359 1256.49,-739.117 1536.62,-720.5 1559.95,-718.949 1585.64,-716.448 1607.71,-714.052"/>
<polygon fill="black" stroke="black" points="1608.35,-717.503 1617.91,-712.926 1607.58,-710.546 1608.35,-717.503"/>
<text text-anchor="middle" x="1265.83" y="-740.3" font-family="Times,serif" font-size="14.00">my_ns:grossIncome</text>
</g>
<!-- Rschema:Movie -->
<g id="node12" class="node"><title>Rschema:Movie</title>
<ellipse fill="none" stroke="blue" cx="1265.83" cy="-392.5" rx="77.9862" ry="18"/>
<text text-anchor="middle" x="1265.83" y="-388.8" font-family="Times,serif" font-size="14.00">schema:Movie</text>
</g>
<!-- Rmy_ns:Movie&#45;&gt;Rschema:Movie -->
<g id="edge10" class="edge"><title>Rmy_ns:Movie&#45;&gt;Rschema:Movie</title>
<path fill="none" stroke="black" d="M828.01,-678.069C849.992,-674.51 872.274,-666.398 887.043,-649.5 921.072,-610.565 868.331,-453.917 905.043,-417.5 942.625,-380.219 1087.52,-381.28 1181.58,-386.297"/>
<polygon fill="black" stroke="black" points="1181.47,-389.796 1191.65,-386.86 1181.86,-382.807 1181.47,-389.796"/>
<text text-anchor="middle" x="1007.54" y="-421.3" font-family="Times,serif" font-size="14.00">rdfs:subClassOf</text>
</g>
<!-- Rxsd:date -->
<g id="node13" class="node"><title>Rxsd:date</title>
<ellipse fill="none" stroke="blue" cx="1265.83" cy="-338.5" rx="50.0912" ry="18"/>
<text text-anchor="middle" x="1265.83" y="-334.8" font-family="Times,serif" font-size="14.00">xsd:date</text>
</g>
<!-- Rmy_ns:Movie&#45;&gt;Rxsd:date -->
<g id="edge12" class="edge"><title>Rmy_ns:Movie&#45;&gt;Rxsd:date</title>
<path fill="none" stroke="black" d="M828.149,-678.189C850.141,-674.639 872.394,-666.501 887.043,-649.5 928.321,-601.592 860.587,-410.475 905.043,-365.5 945.8,-324.267 1115.74,-328.548 1206.73,-334.08"/>
<polygon fill="black" stroke="black" points="1206.68,-337.584 1216.88,-334.723 1207.12,-330.598 1206.68,-337.584"/>
<text text-anchor="middle" x="1007.54" y="-369.3" font-family="Times,serif" font-size="14.00">schema:datePublished</text>
</g>
<!-- Rschema:Rating -->
<g id="node14" class="node"><title>Rschema:Rating</title>
<ellipse fill="none" stroke="blue" cx="1265.83" cy="-284.5" rx="79.8859" ry="18"/>
<text text-anchor="middle" x="1265.83" y="-280.8" font-family="Times,serif" font-size="14.00">schema:Rating</text>
</g>
<!-- Rmy_ns:Movie&#45;&gt;Rschema:Rating -->
<g id="edge13" class="edge"><title>Rmy_ns:Movie&#45;&gt;Rschema:Rating</title>
<path fill="none" stroke="black" d="M827.907,-678.327C850.016,-674.813 872.403,-666.662 887.043,-649.5 911.378,-620.971 878.852,-339.335 905.043,-312.5 982.468,-233.169 1124.73,-250.121 1205.23,-268.16"/>
<polygon fill="black" stroke="black" points="1204.67,-271.625 1215.2,-270.473 1206.25,-264.806 1204.67,-271.625"/>
<text text-anchor="middle" x="1007.54" y="-316.3" font-family="Times,serif" font-size="14.00">schema:contentRating</text>
</g>
<!-- Rschema:Duration -->
<g id="node15" class="node"><title>Rschema:Duration</title>
<ellipse fill="none" stroke="blue" cx="1265.83" cy="-497.5" rx="90.1842" ry="18"/>
<text text-anchor="middle" x="1265.83" y="-493.8" font-family="Times,serif" font-size="14.00">schema:Duration</text>
</g>
<!-- Rmy_ns:Movie&#45;&gt;Rschema:Duration -->
<g id="edge14" class="edge"><title>Rmy_ns:Movie&#45;&gt;Rschema:Duration</title>
<path fill="none" stroke="black" d="M828.078,-677.405C849.797,-673.752 871.904,-665.752 887.043,-649.5 925.9,-607.786 863.318,-561.346 905.043,-522.5 984.807,-448.238 1122.43,-463.401 1202.36,-480.718"/>
<polygon fill="black" stroke="black" points="1201.76,-484.172 1212.29,-482.945 1203.29,-477.341 1201.76,-484.172"/>
<text text-anchor="middle" x="1007.54" y="-526.3" font-family="Times,serif" font-size="14.00">schema:duration</text>
</g>
<!-- Rschema:Person -->
<g id="node16" class="node"><title>Rschema:Person</title>
<ellipse fill="none" stroke="blue" cx="1265.83" cy="-653.5" rx="81.4863" ry="18"/>
<text text-anchor="middle" x="1265.83" y="-649.8" font-family="Times,serif" font-size="14.00">schema:Person</text>
</g>
<!-- Rmy_ns:Movie&#45;&gt;Rschema:Person -->
<g id="edge20" class="edge"><title>Rmy_ns:Movie&#45;&gt;Rschema:Person</title>
<path fill="none" stroke="black" d="M816.974,-667.845C839.323,-663.41 864.667,-657.356 887.043,-649.5 895.482,-646.537 896.338,-642.555 905.043,-640.5 993.716,-619.567 1019.01,-636.684 1110.04,-640.5 1133.28,-641.474 1158.42,-643.267 1181.56,-645.217"/>
<polygon fill="black" stroke="black" points="1181.42,-648.718 1191.68,-646.09 1182.02,-641.744 1181.42,-648.718"/>
<text text-anchor="middle" x="1007.54" y="-644.3" font-family="Times,serif" font-size="14.00">schema:producer</text>
</g>
<!-- Rmy_ns:Movie&#45;&gt;Rschema:Person -->
<g id="edge21" class="edge"><title>Rmy_ns:Movie&#45;&gt;Rschema:Person</title>
<path fill="none" stroke="black" d="M826.867,-674.188C917.929,-669.887 1076.95,-662.375 1176.26,-657.684"/>
<polygon fill="black" stroke="black" points="1176.45,-661.179 1186.27,-657.211 1176.12,-654.187 1176.45,-661.179"/>
<text text-anchor="middle" x="1007.54" y="-674.3" font-family="Times,serif" font-size="14.00">schema:author</text>
</g>
<!-- Rschema:text -->
<g id="node17" class="node"><title>Rschema:text</title>
<ellipse fill="none" stroke="blue" cx="1265.83" cy="-911.5" rx="67.6881" ry="18"/>
<text text-anchor="middle" x="1265.83" y="-907.8" font-family="Times,serif" font-size="14.00">schema:text</text>
</g>
<!-- Rmy_ns:Movie&#45;&gt;Rschema:text -->
<g id="edge22" class="edge"><title>Rmy_ns:Movie&#45;&gt;Rschema:text</title>
<path fill="none" stroke="black" d="M817.178,-687.092C842.579,-694.255 870.107,-706.745 887.043,-728.5 926.391,-779.047 859.42,-826.534 905.043,-871.5 905.362,-871.814 1087.93,-891.993 1192.84,-903.565"/>
<polygon fill="black" stroke="black" points="1192.73,-907.074 1203.05,-904.692 1193.49,-900.116 1192.73,-907.074"/>
<text text-anchor="middle" x="1007.54" y="-898.3" font-family="Times,serif" font-size="14.00">schema:cinematographer</text>
</g>
<!-- Rhttps://www.imdb.com/title/tt0015864/ -->
<g id="node18" class="node"><title>Rhttps://www.imdb.com/title/tt0015864/</title>
<ellipse fill="none" stroke="blue" cx="191.733" cy="-480.5" rx="191.966" ry="18"/>
<text text-anchor="middle" x="191.733" y="-476.8" font-family="Times,serif" font-size="14.00">https://www.imdb.com/title/tt0015864/</text>
</g>
<!-- Rhttps://www.imdb.com/title/tt0015864/&#45;&gt;Rmy_ns:Movie -->
<g id="edge24" class="edge"><title>Rhttps://www.imdb.com/title/tt0015864/&#45;&gt;Rmy_ns:Movie</title>
<path fill="none" stroke="black" d="M215.206,-498.471C251.803,-526.646 327.63,-580.568 401.466,-605.5 488.33,-634.832 525.44,-585.599 606.466,-628.5 617.33,-634.252 613.903,-643.212 624.466,-649.5 640.475,-659.03 659.304,-665.335 677.595,-669.5"/>
<polygon fill="black" stroke="black" points="676.881,-672.927 687.386,-671.546 678.313,-666.075 676.881,-672.927"/>
<text text-anchor="middle" x="503.966" y="-632.3" font-family="Times,serif" font-size="14.00">rdf:type</text>
</g>
<!-- L$5.45M -->
<g id="node19" class="node"><title>L$5.45M</title>
<polygon fill="none" stroke="black" points="719.754,-484.5 719.754,-520.5 791.754,-520.5 791.754,-484.5 719.754,-484.5"/>
<text text-anchor="middle" x="755.754" y="-498.8" font-family="Times,serif" font-size="14.00">$5.45M</text>
</g>
<!-- Rhttps://www.imdb.com/title/tt0015864/&#45;&gt;L$5.45M -->
<g id="edge25" class="edge"><title>Rhttps://www.imdb.com/title/tt0015864/&#45;&gt;L$5.45M</title>
<path fill="none" stroke="black" d="M369.018,-487.401C487.914,-492.055 635.998,-497.851 709.291,-500.72"/>
<polygon fill="black" stroke="black" points="709.421,-504.228 719.55,-501.122 709.695,-497.233 709.421,-504.228"/>
<text text-anchor="middle" x="503.966" y="-501.3" font-family="Times,serif" font-size="14.00">my_ns:grossIncome</text>
</g>
<!-- LNone -->
<g id="node20" class="node"><title>LNone</title>
<polygon fill="none" stroke="black" points="728.254,-738.5 728.254,-774.5 783.254,-774.5 783.254,-738.5 728.254,-738.5"/>
<text text-anchor="middle" x="755.754" y="-752.8" font-family="Times,serif" font-size="14.00">None</text>
</g>
<!-- Rhttps://www.imdb.com/title/tt0015864/&#45;&gt;LNone -->
<g id="edge26" class="edge"><title>Rhttps://www.imdb.com/title/tt0015864/&#45;&gt;LNone</title>
<path fill="none" stroke="black" d="M208.999,-498.622C241.59,-533.572 318.876,-609.806 401.466,-643.5 486.356,-678.133 531.851,-613.223 606.466,-666.5 621.675,-677.359 610.844,-691.706 624.466,-704.5 650.553,-729.002 689.623,-742.509 718.174,-749.57"/>
<polygon fill="black" stroke="black" points="717.641,-753.039 728.173,-751.888 719.222,-746.22 717.641,-753.039"/>
<text text-anchor="middle" x="503.966" y="-670.3" font-family="Times,serif" font-size="14.00">my_ns:imdbMetascore</text>
</g>
<!-- Rhttps://www.imdb.com/title/tt0015864/&#45;&gt;LNone -->
<g id="edge30" class="edge"><title>Rhttps://www.imdb.com/title/tt0015864/&#45;&gt;LNone</title>
<path fill="none" stroke="black" d="M205.038,-498.699C233.841,-539.611 310.168,-638.616 401.466,-681.5 484.45,-720.479 517.084,-684.09 606.466,-704.5 645.774,-713.476 689.12,-729.419 718.739,-741.294"/>
<polygon fill="black" stroke="black" points="717.65,-744.629 728.233,-745.149 720.284,-738.143 717.65,-744.629"/>
<text text-anchor="middle" x="503.966" y="-708.3" font-family="Times,serif" font-size="14.00">schema:cinematographer</text>
</g>
<!-- L8.2 -->
<g id="node21" class="node"><title>L8.2</title>
<polygon fill="none" stroke="black" points="728.754,-199.5 728.754,-235.5 782.754,-235.5 782.754,-199.5 728.754,-199.5"/>
<text text-anchor="middle" x="755.754" y="-213.8" font-family="Times,serif" font-size="14.00">8.2</text>
</g>
<!-- Rhttps://www.imdb.com/title/tt0015864/&#45;&gt;L8.2 -->
<g id="edge27" class="edge"><title>Rhttps://www.imdb.com/title/tt0015864/&#45;&gt;L8.2</title>
<path fill="none" stroke="black" d="M202.391,-462.264C227.815,-416.379 301.573,-296.26 401.466,-246.5 506.826,-194.017 651.96,-203.77 718.621,-212.058"/>
<polygon fill="black" stroke="black" points="718.259,-215.54 728.628,-213.366 719.166,-208.599 718.259,-215.54"/>
<text text-anchor="middle" x="503.966" y="-250.3" font-family="Times,serif" font-size="14.00">my_ns:imdbRating</text>
</g>
<!-- L93,057 -->
<g id="node22" class="node"><title>L93,057</title>
<polygon fill="none" stroke="black" points="722.754,-144.5 722.754,-180.5 788.754,-180.5 788.754,-144.5 722.754,-144.5"/>
<text text-anchor="middle" x="755.754" y="-158.8" font-family="Times,serif" font-size="14.00">93,057</text>
</g>
<!-- Rhttps://www.imdb.com/title/tt0015864/&#45;&gt;L93,057 -->
<g id="edge28" class="edge"><title>Rhttps://www.imdb.com/title/tt0015864/&#45;&gt;L93,057</title>
<path fill="none" stroke="black" d="M199.16,-462.499C219.26,-409.212 286.532,-251.974 401.466,-187.5 501.315,-131.489 642.805,-143.728 712.545,-154.568"/>
<polygon fill="black" stroke="black" points="712.271,-158.07 722.703,-156.217 713.393,-151.16 712.271,-158.07"/>
<text text-anchor="middle" x="503.966" y="-191.3" font-family="Times,serif" font-size="14.00">my_ns:imdbVotes</text>
</g>
<!-- LCharles Chaplin -->
<g id="node23" class="node"><title>LCharles Chaplin</title>
<polygon fill="none" stroke="black" points="689.754,-364.5 689.754,-400.5 821.754,-400.5 821.754,-364.5 689.754,-364.5"/>
<text text-anchor="middle" x="755.754" y="-378.8" font-family="Times,serif" font-size="14.00">Charles Chaplin</text>
</g>
<!-- Rhttps://www.imdb.com/title/tt0015864/&#45;&gt;LCharles Chaplin -->
<g id="edge29" class="edge"><title>Rhttps://www.imdb.com/title/tt0015864/&#45;&gt;LCharles Chaplin</title>
<path fill="none" stroke="black" d="M220.702,-462.678C259.486,-439.122 332.62,-398.818 401.466,-383.5 495.48,-362.583 607.083,-366.95 679.325,-373.453"/>
<polygon fill="black" stroke="black" points="679.408,-376.977 689.691,-374.426 680.061,-370.007 679.408,-376.977"/>
<text text-anchor="middle" x="503.966" y="-387.3" font-family="Times,serif" font-size="14.00">schema:author</text>
</g>
<!-- Rhttps://www.imdb.com/title/tt0015864/&#45;&gt;LCharles Chaplin -->
<g id="edge36" class="edge"><title>Rhttps://www.imdb.com/title/tt0015864/&#45;&gt;LCharles Chaplin</title>
<path fill="none" stroke="black" d="M263.013,-463.711C303.38,-454.395 355.113,-443.008 401.466,-434.5 496.926,-416.979 607.751,-401.441 679.45,-392.013"/>
<polygon fill="black" stroke="black" points="680.276,-395.434 689.738,-390.667 679.368,-388.494 680.276,-395.434"/>
<text text-anchor="middle" x="503.966" y="-438.3" font-family="Times,serif" font-size="14.00">schema:producer</text>
</g>
<!-- LNot Rated -->
<g id="node24" class="node"><title>LNot Rated</title>
<polygon fill="none" stroke="black" points="710.754,-604.5 710.754,-640.5 800.754,-640.5 800.754,-604.5 710.754,-604.5"/>
<text text-anchor="middle" x="755.754" y="-618.8" font-family="Times,serif" font-size="14.00">Not Rated</text>
</g>
<!-- Rhttps://www.imdb.com/title/tt0015864/&#45;&gt;LNot Rated -->
<g id="edge31" class="edge"><title>Rhttps://www.imdb.com/title/tt0015864/&#45;&gt;LNot Rated</title>
<path fill="none" stroke="black" d="M229.13,-498.187C270.067,-517.313 339.006,-547.238 401.466,-563.5 490.399,-586.655 515.969,-574.517 606.466,-590.5 614.536,-591.925 616.46,-592.75 624.466,-594.5 649.583,-599.99 677.444,-605.989 700.934,-611.022"/>
<polygon fill="black" stroke="black" points="700.202,-614.444 710.713,-613.115 701.667,-607.599 700.202,-614.444"/>
<text text-anchor="middle" x="503.966" y="-595.3" font-family="Times,serif" font-size="14.00">schema:contentRating</text>
</g>
<!-- L1925&#45;12&#45;02|Datatype: xsd:date -->
<g id="node25" class="node"><title>L1925&#45;12&#45;02|Datatype: xsd:date</title>
<polygon fill="none" stroke="black" points="679.754,-539.5 679.754,-585.5 831.754,-585.5 831.754,-539.5 679.754,-539.5"/>
<text text-anchor="middle" x="755.754" y="-570.3" font-family="Times,serif" font-size="14.00">1925&#45;12&#45;02</text>
<polyline fill="none" stroke="black" points="679.754,-562.5 831.754,-562.5 "/>
<text text-anchor="middle" x="755.754" y="-547.3" font-family="Times,serif" font-size="14.00">Datatype: xsd:date</text>
</g>
<!-- Rhttps://www.imdb.com/title/tt0015864/&#45;&gt;L1925&#45;12&#45;02|Datatype: xsd:date -->
<g id="edge32" class="edge"><title>Rhttps://www.imdb.com/title/tt0015864/&#45;&gt;L1925&#45;12&#45;02|Datatype: xsd:date</title>
<path fill="none" stroke="black" d="M280.453,-496.458C317.709,-503.02 361.652,-510.477 401.466,-516.5 492.69,-530.3 597.55,-543.635 669.185,-552.362"/>
<polygon fill="black" stroke="black" points="669.158,-555.885 679.507,-553.616 670.002,-548.936 669.158,-555.885"/>
<text text-anchor="middle" x="503.966" y="-548.3" font-family="Times,serif" font-size="14.00">schema:datePublished</text>
</g>
<!-- L95 min|Datatype: xsd:time -->
<g id="node26" class="node"><title>L95 min|Datatype: xsd:time</title>
<polygon fill="none" stroke="black" points="679.754,-419.5 679.754,-465.5 831.754,-465.5 831.754,-419.5 679.754,-419.5"/>
<text text-anchor="middle" x="755.754" y="-450.3" font-family="Times,serif" font-size="14.00">95 min</text>
<polyline fill="none" stroke="black" points="679.754,-442.5 831.754,-442.5 "/>
<text text-anchor="middle" x="755.754" y="-427.3" font-family="Times,serif" font-size="14.00">Datatype: xsd:time</text>
</g>
<!-- Rhttps://www.imdb.com/title/tt0015864/&#45;&gt;L95 min|Datatype: xsd:time -->
<g id="edge33" class="edge"><title>Rhttps://www.imdb.com/title/tt0015864/&#45;&gt;L95 min|Datatype: xsd:time</title>
<path fill="none" stroke="black" d="M347.796,-470.016C451.609,-462.997 584.337,-454.022 669.463,-448.267"/>
<polygon fill="black" stroke="black" points="669.862,-451.748 679.603,-447.581 669.39,-444.764 669.862,-451.748"/>
<text text-anchor="middle" x="503.966" y="-470.3" font-family="Times,serif" font-size="14.00">schema:duration</text>
</g>
<!-- LAdventure, Comedy, Drama -->
<g id="node27" class="node"><title>LAdventure, Comedy, Drama</title>
<polygon fill="none" stroke="black" points="648.754,-309.5 648.754,-345.5 862.754,-345.5 862.754,-309.5 648.754,-309.5"/>
<text text-anchor="middle" x="755.754" y="-323.8" font-family="Times,serif" font-size="14.00">Adventure, Comedy, Drama</text>
</g>
<!-- Rhttps://www.imdb.com/title/tt0015864/&#45;&gt;LAdventure, Comedy, Drama -->
<g id="edge34" class="edge"><title>Rhttps://www.imdb.com/title/tt0015864/&#45;&gt;LAdventure, Comedy, Drama</title>
<path fill="none" stroke="black" d="M213.452,-462.421C249.034,-432.611 325.306,-374.008 401.466,-349.5 477.853,-324.919 568.231,-319.69 638.452,-320.467"/>
<polygon fill="black" stroke="black" points="638.61,-323.97 648.662,-320.624 638.717,-316.971 638.61,-323.97"/>
<text text-anchor="middle" x="503.966" y="-353.3" font-family="Times,serif" font-size="14.00">schema:genre</text>
</g>
<!-- LTHE GOLD RUSH  -->
<g id="node28" class="node"><title>LTHE GOLD RUSH </title>
<polygon fill="none" stroke="black" points="683.254,-254.5 683.254,-290.5 828.254,-290.5 828.254,-254.5 683.254,-254.5"/>
<text text-anchor="middle" x="755.754" y="-268.8" font-family="Times,serif" font-size="14.00">THE GOLD RUSH</text>
</g>
<!-- Rhttps://www.imdb.com/title/tt0015864/&#45;&gt;LTHE GOLD RUSH  -->
<g id="edge35" class="edge"><title>Rhttps://www.imdb.com/title/tt0015864/&#45;&gt;LTHE GOLD RUSH </title>
<path fill="none" stroke="black" d="M206.853,-462.539C237.559,-425.002 314.663,-338.73 401.466,-302.5 488.951,-265.985 599.034,-262.547 672.864,-265.603"/>
<polygon fill="black" stroke="black" points="672.883,-269.108 683.035,-266.075 673.208,-262.115 672.883,-269.108"/>
<text text-anchor="middle" x="503.966" y="-306.3" font-family="Times,serif" font-size="14.00">schema:headline</text>
</g>
<!-- Rmy_ns:company_0000012 -->
<g id="node29" class="node"><title>Rmy_ns:company_0000012</title>
<ellipse fill="none" stroke="blue" cx="755.754" cy="-848.5" rx="131.077" ry="18"/>
<text text-anchor="middle" x="755.754" y="-844.8" font-family="Times,serif" font-size="14.00">my_ns:company_0000012</text>
</g>
<!-- Rhttps://www.imdb.com/title/tt0015864/&#45;&gt;Rmy_ns:company_0000012 -->
<g id="edge37" class="edge"><title>Rhttps://www.imdb.com/title/tt0015864/&#45;&gt;Rmy_ns:company_0000012</title>
<path fill="none" stroke="black" d="M198.402,-498.496C216.982,-554.138 281.822,-723.944 401.466,-795.5 440.73,-818.983 561.292,-807.261 606.466,-814.5 631.909,-818.577 659.496,-824.485 683.897,-830.235"/>
<polygon fill="black" stroke="black" points="683.248,-833.679 693.788,-832.598 684.875,-826.87 683.248,-833.679"/>
<text text-anchor="middle" x="503.966" y="-818.3" font-family="Times,serif" font-size="14.00">schema:productionCompany</text>
</g>
<!-- Rmy_ns:company_0000012&#45;&gt;Rmy_ns:productionCompany -->
<g id="edge52" class="edge"><title>Rmy_ns:company_0000012&#45;&gt;Rmy_ns:productionCompany</title>
<path fill="none" stroke="black" d="M862.369,-859.183C871.444,-863.29 879.878,-868.62 887.043,-875.5 910.836,-898.345 879.559,-926.557 905.043,-947.5 939.413,-975.746 1046.7,-978.157 1135.24,-974.724"/>
<polygon fill="black" stroke="black" points="1135.54,-978.214 1145.39,-974.302 1135.25,-971.22 1135.54,-978.214"/>
<text text-anchor="middle" x="1007.54" y="-980.3" font-family="Times,serif" font-size="14.00">rdf:type</text>
</g>
<!-- LCharles Chaplin Productions -->
<g id="node41" class="node"><title>LCharles Chaplin Productions</title>
<polygon fill="none" stroke="black" points="1154.33,-1002.5 1154.33,-1038.5 1377.33,-1038.5 1377.33,-1002.5 1154.33,-1002.5"/>
<text text-anchor="middle" x="1265.83" y="-1016.8" font-family="Times,serif" font-size="14.00">Charles Chaplin Productions</text>
</g>
<!-- Rmy_ns:company_0000012&#45;&gt;LCharles Chaplin Productions -->
<g id="edge53" class="edge"><title>Rmy_ns:company_0000012&#45;&gt;LCharles Chaplin Productions</title>
<path fill="none" stroke="black" d="M863.695,-858.783C872.388,-862.99 880.375,-868.452 887.043,-875.5 924.105,-914.677 865.423,-958.912 905.043,-995.5 979.814,-1064.55 1104.69,-1055.99 1185.89,-1040.54"/>
<polygon fill="black" stroke="black" points="1186.93,-1043.9 1196.06,-1038.53 1185.57,-1037.04 1186.93,-1043.9"/>
<text text-anchor="middle" x="1007.54" y="-1055.3" font-family="Times,serif" font-size="14.00">foaf:name</text>
</g>
<!-- Rhttps://www.imdb.com/title/tt0021749/ -->
<g id="node30" class="node"><title>Rhttps://www.imdb.com/title/tt0021749/</title>
<ellipse fill="none" stroke="blue" cx="191.733" cy="-1051.5" rx="191.966" ry="18"/>
<text text-anchor="middle" x="191.733" y="-1047.8" font-family="Times,serif" font-size="14.00">https://www.imdb.com/title/tt0021749/</text>
</g>
<!-- Rhttps://www.imdb.com/title/tt0021749/&#45;&gt;Rmy_ns:Movie -->
<g id="edge38" class="edge"><title>Rhttps://www.imdb.com/title/tt0021749/&#45;&gt;Rmy_ns:Movie</title>
<path fill="none" stroke="black" d="M198.843,-1033.16C218.268,-978.057 284.324,-813.391 401.466,-742.5 440.685,-718.766 561.483,-728.331 606.466,-719.5 638.525,-713.206 673.737,-703.361 701.801,-694.784"/>
<polygon fill="black" stroke="black" points="702.894,-698.11 711.413,-691.812 700.825,-691.423 702.894,-698.11"/>
<text text-anchor="middle" x="503.966" y="-746.3" font-family="Times,serif" font-size="14.00">rdf:type</text>
</g>
<!-- Rhttps://www.imdb.com/title/tt0021749/&#45;&gt;LNone -->
<g id="edge43" class="edge"><title>Rhttps://www.imdb.com/title/tt0021749/&#45;&gt;LNone</title>
<path fill="none" stroke="black" d="M200.189,-1033.37C222.154,-982.622 292.02,-839.039 401.466,-780.5 428.856,-765.85 633.194,-759.373 718.015,-757.295"/>
<polygon fill="black" stroke="black" points="718.306,-760.789 728.22,-757.053 718.139,-753.791 718.306,-760.789"/>
<text text-anchor="middle" x="503.966" y="-784.3" font-family="Times,serif" font-size="14.00">schema:author</text>
</g>
<!-- Rhttps://www.imdb.com/title/tt0021749/&#45;&gt;LNone -->
<g id="edge50" class="edge"><title>Rhttps://www.imdb.com/title/tt0021749/&#45;&gt;LNone</title>
<path fill="none" stroke="black" d="M205.027,-1033.36C233.808,-992.593 310.092,-894.072 401.466,-852.5 484.753,-814.607 520.209,-864.033 606.466,-833.5 615.53,-830.292 616.148,-826.322 624.466,-821.5 655.532,-803.49 692.239,-785.453 718.76,-772.965"/>
<polygon fill="black" stroke="black" points="720.465,-776.031 728.041,-768.625 717.5,-769.69 720.465,-776.031"/>
<text text-anchor="middle" x="503.966" y="-856.3" font-family="Times,serif" font-size="14.00">schema:producer</text>
</g>
<!-- Rhttps://www.imdb.com/title/tt0021749/&#45;&gt;Rmy_ns:company_0000012 -->
<g id="edge51" class="edge"><title>Rhttps://www.imdb.com/title/tt0021749/&#45;&gt;Rmy_ns:company_0000012</title>
<path fill="none" stroke="black" d="M210.947,-1033.42C245.042,-1000.78 322.241,-932.456 401.466,-900.5 486.804,-866.078 515.443,-884.997 606.466,-871.5 623.377,-868.993 641.362,-866.259 658.759,-863.581"/>
<polygon fill="black" stroke="black" points="659.572,-866.997 668.921,-862.012 658.504,-860.079 659.572,-866.997"/>
<text text-anchor="middle" x="503.966" y="-904.3" font-family="Times,serif" font-size="14.00">schema:productionCompany</text>
</g>
<!-- L$0.02M -->
<g id="node31" class="node"><title>L$0.02M</title>
<polygon fill="none" stroke="black" points="719.754,-1400.5 719.754,-1436.5 791.754,-1436.5 791.754,-1400.5 719.754,-1400.5"/>
<text text-anchor="middle" x="755.754" y="-1414.8" font-family="Times,serif" font-size="14.00">$0.02M</text>
</g>
<!-- Rhttps://www.imdb.com/title/tt0021749/&#45;&gt;L$0.02M -->
<g id="edge39" class="edge"><title>Rhttps://www.imdb.com/title/tt0021749/&#45;&gt;L$0.02M</title>
<path fill="none" stroke="black" d="M197.284,-1069.63C213.277,-1129.07 273.016,-1318.73 401.466,-1396.5 498.167,-1455.05 638.312,-1440.82 709.536,-1428.17"/>
<polygon fill="black" stroke="black" points="710.333,-1431.58 719.531,-1426.32 709.061,-1424.69 710.333,-1431.58"/>
<text text-anchor="middle" x="503.966" y="-1443.3" font-family="Times,serif" font-size="14.00">my_ns:grossIncome</text>
</g>
<!-- L99 -->
<g id="node32" class="node"><title>L99</title>
<polygon fill="none" stroke="black" points="728.754,-1345.5 728.754,-1381.5 782.754,-1381.5 782.754,-1345.5 728.754,-1345.5"/>
<text text-anchor="middle" x="755.754" y="-1359.8" font-family="Times,serif" font-size="14.00">99</text>
</g>
<!-- Rhttps://www.imdb.com/title/tt0021749/&#45;&gt;L99 -->
<g id="edge40" class="edge"><title>Rhttps://www.imdb.com/title/tt0021749/&#45;&gt;L99</title>
<path fill="none" stroke="black" d="M199.892,-1069.8C221.303,-1121.74 290.334,-1270.38 401.466,-1332.5 504.516,-1390.1 651.39,-1378.81 718.63,-1369.51"/>
<polygon fill="black" stroke="black" points="719.326,-1372.94 728.719,-1368.04 718.32,-1366.02 719.326,-1372.94"/>
<text text-anchor="middle" x="503.966" y="-1381.3" font-family="Times,serif" font-size="14.00">my_ns:imdbMetascore</text>
</g>
<!-- L8.5 -->
<g id="node33" class="node"><title>L8.5</title>
<polygon fill="none" stroke="black" points="728.754,-1290.5 728.754,-1326.5 782.754,-1326.5 782.754,-1290.5 728.754,-1290.5"/>
<text text-anchor="middle" x="755.754" y="-1304.8" font-family="Times,serif" font-size="14.00">8.5</text>
</g>
<!-- Rhttps://www.imdb.com/title/tt0021749/&#45;&gt;L8.5 -->
<g id="edge41" class="edge"><title>Rhttps://www.imdb.com/title/tt0021749/&#45;&gt;L8.5</title>
<path fill="none" stroke="black" d="M203.868,-1069.73C231.292,-1112.79 306.796,-1220.71 401.466,-1267.5 507.342,-1319.83 652.221,-1316.85 718.72,-1312"/>
<polygon fill="black" stroke="black" points="719.008,-1315.49 728.702,-1311.21 718.458,-1308.51 719.008,-1315.49"/>
<text text-anchor="middle" x="503.966" y="-1317.3" font-family="Times,serif" font-size="14.00">my_ns:imdbRating</text>
</g>
<!-- L154,848 -->
<g id="node34" class="node"><title>L154,848</title>
<polygon fill="none" stroke="black" points="718.254,-1235.5 718.254,-1271.5 793.254,-1271.5 793.254,-1235.5 718.254,-1235.5"/>
<text text-anchor="middle" x="755.754" y="-1249.8" font-family="Times,serif" font-size="14.00">154,848</text>
</g>
<!-- Rhttps://www.imdb.com/title/tt0021749/&#45;&gt;L154,848 -->
<g id="edge42" class="edge"><title>Rhttps://www.imdb.com/title/tt0021749/&#45;&gt;L154,848</title>
<path fill="none" stroke="black" d="M210.655,-1069.44C244.572,-1102.2 321.904,-1171.26 401.466,-1203.5 505.222,-1245.54 638.551,-1253.14 707.991,-1253.98"/>
<polygon fill="black" stroke="black" points="708.14,-1257.48 718.167,-1254.06 708.194,-1250.48 708.14,-1257.48"/>
<text text-anchor="middle" x="503.966" y="-1252.3" font-family="Times,serif" font-size="14.00">my_ns:imdbVotes</text>
</g>
<!-- LMark Marklatt -->
<g id="node35" class="node"><title>LMark Marklatt</title>
<polygon fill="none" stroke="black" points="693.754,-1180.5 693.754,-1216.5 817.754,-1216.5 817.754,-1180.5 693.754,-1180.5"/>
<text text-anchor="middle" x="755.754" y="-1194.8" font-family="Times,serif" font-size="14.00">Mark Marklatt</text>
</g>
<!-- Rhttps://www.imdb.com/title/tt0021749/&#45;&gt;LMark Marklatt -->
<g id="edge44" class="edge"><title>Rhttps://www.imdb.com/title/tt0021749/&#45;&gt;LMark Marklatt</title>
<path fill="none" stroke="black" d="M225.311,-1069.32C265.522,-1090.53 336.561,-1125.46 401.466,-1144.5 496.8,-1172.47 611.092,-1186.58 683.328,-1193.22"/>
<polygon fill="black" stroke="black" points="683.401,-1196.74 693.674,-1194.15 684.026,-1189.77 683.401,-1196.74"/>
<text text-anchor="middle" x="503.966" y="-1188.3" font-family="Times,serif" font-size="14.00">schema:cinematographer</text>
</g>
<!-- LG -->
<g id="node36" class="node"><title>LG</title>
<polygon fill="none" stroke="black" points="728.754,-1125.5 728.754,-1161.5 782.754,-1161.5 782.754,-1125.5 728.754,-1125.5"/>
<text text-anchor="middle" x="755.754" y="-1139.8" font-family="Times,serif" font-size="14.00">G</text>
</g>
<!-- Rhttps://www.imdb.com/title/tt0021749/&#45;&gt;LG -->
<g id="edge45" class="edge"><title>Rhttps://www.imdb.com/title/tt0021749/&#45;&gt;LG</title>
<path fill="none" stroke="black" d="M267.381,-1068.11C307.085,-1076.63 356.799,-1086.81 401.466,-1094.5 516.789,-1114.35 654.37,-1131.6 718.503,-1139.27"/>
<polygon fill="black" stroke="black" points="718.171,-1142.75 728.515,-1140.46 718.998,-1135.8 718.171,-1142.75"/>
<text text-anchor="middle" x="503.966" y="-1129.3" font-family="Times,serif" font-size="14.00">schema:contentRating</text>
</g>
<!-- L1931&#45;07&#45;23|Datatype: xsd:date -->
<g id="node37" class="node"><title>L1931&#45;07&#45;23|Datatype: xsd:date</title>
<polygon fill="none" stroke="black" points="679.754,-1060.5 679.754,-1106.5 831.754,-1106.5 831.754,-1060.5 679.754,-1060.5"/>
<text text-anchor="middle" x="755.754" y="-1091.3" font-family="Times,serif" font-size="14.00">1931&#45;07&#45;23</text>
<polyline fill="none" stroke="black" points="679.754,-1083.5 831.754,-1083.5 "/>
<text text-anchor="middle" x="755.754" y="-1068.3" font-family="Times,serif" font-size="14.00">Datatype: xsd:date</text>
</g>
<!-- Rhttps://www.imdb.com/title/tt0021749/&#45;&gt;L1931&#45;07&#45;23|Datatype: xsd:date -->
<g id="edge46" class="edge"><title>Rhttps://www.imdb.com/title/tt0021749/&#45;&gt;L1931&#45;07&#45;23|Datatype: xsd:date</title>
<path fill="none" stroke="black" d="M356.048,-1060.8C458.562,-1066.64 586.583,-1073.92 669.47,-1078.64"/>
<polygon fill="black" stroke="black" points="669.418,-1082.15 679.6,-1079.22 669.816,-1075.16 669.418,-1082.15"/>
<text text-anchor="middle" x="503.966" y="-1079.3" font-family="Times,serif" font-size="14.00">schema:datePublished</text>
</g>
<!-- L87 min|Datatype: xsd:time -->
<g id="node38" class="node"><title>L87 min|Datatype: xsd:time</title>
<polygon fill="none" stroke="black" points="679.754,-995.5 679.754,-1041.5 831.754,-1041.5 831.754,-995.5 679.754,-995.5"/>
<text text-anchor="middle" x="755.754" y="-1026.3" font-family="Times,serif" font-size="14.00">87 min</text>
<polyline fill="none" stroke="black" points="679.754,-1018.5 831.754,-1018.5 "/>
<text text-anchor="middle" x="755.754" y="-1003.3" font-family="Times,serif" font-size="14.00">Datatype: xsd:time</text>
</g>
<!-- Rhttps://www.imdb.com/title/tt0021749/&#45;&gt;L87 min|Datatype: xsd:time -->
<g id="edge47" class="edge"><title>Rhttps://www.imdb.com/title/tt0021749/&#45;&gt;L87 min|Datatype: xsd:time</title>
<path fill="none" stroke="black" d="M354.916,-1041.98C457.63,-1035.95 586.307,-1028.39 669.498,-1023.51"/>
<polygon fill="black" stroke="black" points="669.887,-1026.99 679.665,-1022.91 669.477,-1020 669.887,-1026.99"/>
<text text-anchor="middle" x="503.966" y="-1043.3" font-family="Times,serif" font-size="14.00">schema:duration</text>
</g>
<!-- LComedy, Drama, Romance -->
<g id="node39" class="node"><title>LComedy, Drama, Romance</title>
<polygon fill="none" stroke="black" points="653.254,-940.5 653.254,-976.5 858.254,-976.5 858.254,-940.5 653.254,-940.5"/>
<text text-anchor="middle" x="755.754" y="-954.8" font-family="Times,serif" font-size="14.00">Comedy, Drama, Romance</text>
</g>
<!-- Rhttps://www.imdb.com/title/tt0021749/&#45;&gt;LComedy, Drama, Romance -->
<g id="edge48" class="edge"><title>Rhttps://www.imdb.com/title/tt0021749/&#45;&gt;LComedy, Drama, Romance</title>
<path fill="none" stroke="black" d="M267.39,-1034.94C307.096,-1026.43 356.81,-1016.25 401.466,-1008.5 482.035,-994.514 573.452,-981.657 643.106,-972.483"/>
<polygon fill="black" stroke="black" points="643.761,-975.927 653.221,-971.157 642.85,-968.987 643.761,-975.927"/>
<text text-anchor="middle" x="503.966" y="-1012.3" font-family="Times,serif" font-size="14.00">schema:genre</text>
</g>
<!-- LCITY LBGHTS  -->
<g id="node40" class="node"><title>LCITY LBGHTS </title>
<polygon fill="none" stroke="black" points="696.254,-885.5 696.254,-921.5 815.254,-921.5 815.254,-885.5 696.254,-885.5"/>
<text text-anchor="middle" x="755.754" y="-899.8" font-family="Times,serif" font-size="14.00">CITY LBGHTS</text>
</g>
<!-- Rhttps://www.imdb.com/title/tt0021749/&#45;&gt;LCITY LBGHTS  -->
<g id="edge49" class="edge"><title>Rhttps://www.imdb.com/title/tt0021749/&#45;&gt;LCITY LBGHTS </title>
<path fill="none" stroke="black" d="M225.709,-1033.76C266.026,-1012.84 336.88,-978.504 401.466,-959.5 497.996,-931.096 613.861,-916.214 685.915,-909.115"/>
<polygon fill="black" stroke="black" points="686.602,-912.566 696.221,-908.124 685.931,-905.598 686.602,-912.566"/>
<text text-anchor="middle" x="503.966" y="-963.3" font-family="Times,serif" font-size="14.00">schema:headline</text>
</g>
</g>
</svg>

